<svg width="14" height="15" viewBox="0 0 14 15" fill="none" xmlns="http://www.w3.org/2000/svg">
<rect y="0.5" width="14" height="14" fill="white"/>
<path d="M6.503 9.803C6.4729 9.83626 6.44485 9.87133 6.419 9.908C6.39251 9.94702 6.37132 9.98939 6.356 10.034C6.33582 10.0737 6.32166 10.1161 6.314 10.16C6.31057 10.2066 6.31057 10.2534 6.314 10.3C6.31164 10.3918 6.33082 10.4829 6.37 10.566C6.40144 10.6529 6.4516 10.7318 6.51692 10.7971C6.58224 10.8624 6.66114 10.9126 6.748 10.944C6.83179 10.981 6.92239 11.0002 7.014 11.0002C7.10561 11.0002 7.19621 10.981 7.28 10.944C7.36687 10.9126 7.44576 10.8624 7.51108 10.7971C7.57641 10.7318 7.62656 10.6529 7.658 10.566C7.68909 10.4809 7.70335 10.3905 7.7 10.3C7.70053 10.2079 7.68288 10.1166 7.64804 10.0313C7.61321 9.94598 7.56188 9.86841 7.497 9.803C7.43193 9.73739 7.35451 9.68531 7.26921 9.64977C7.1839 9.61424 7.09241 9.59594 7 9.59594C6.90759 9.59594 6.8161 9.61424 6.7308 9.64977C6.6455 9.68531 6.56808 9.73739 6.503 9.803ZM7 0.5C5.61553 0.5 4.26215 0.910543 3.11101 1.67971C1.95987 2.44888 1.06266 3.54213 0.532846 4.82122C0.00303299 6.1003 -0.13559 7.50776 0.134506 8.86563C0.404603 10.2235 1.07129 11.4708 2.05026 12.4497C3.02922 13.4287 4.2765 14.0954 5.63437 14.3655C6.99224 14.6356 8.3997 14.497 9.67879 13.9672C10.9579 13.4373 12.0511 12.5401 12.8203 11.389C13.5895 10.2378 14 8.88447 14 7.5C14 6.58075 13.8189 5.67049 13.4672 4.82122C13.1154 3.97194 12.5998 3.20026 11.9497 2.55025C11.2997 1.90024 10.5281 1.38463 9.67879 1.03284C8.82951 0.68106 7.91925 0.5 7 0.5ZM7 13.1C5.89243 13.1 4.80972 12.7716 3.88881 12.1562C2.96789 11.5409 2.25013 10.6663 1.82628 9.64303C1.40243 8.61976 1.29153 7.49379 1.50761 6.40749C1.72368 5.3212 2.25703 4.32338 3.0402 3.5402C3.82338 2.75703 4.8212 2.22368 5.9075 2.0076C6.99379 1.79153 8.11976 1.90242 9.14303 2.32627C10.1663 2.75013 11.0409 3.46789 11.6562 4.38881C12.2716 5.30972 12.6 6.39242 12.6 7.5C12.6 8.98521 12.01 10.4096 10.9598 11.4598C9.9096 12.51 8.48521 13.1 7 13.1ZM7 4C6.63115 3.99976 6.26874 4.09668 5.94924 4.28101C5.62974 4.46533 5.36443 4.73056 5.18 5.05C5.12935 5.12967 5.09535 5.21877 5.08002 5.31192C5.0647 5.40508 5.06838 5.50037 5.09084 5.59207C5.1133 5.68377 5.15408 5.76997 5.21072 5.8455C5.26736 5.92103 5.3387 5.98432 5.42043 6.03157C5.50217 6.07882 5.59262 6.10904 5.68634 6.12042C5.78005 6.13181 5.87511 6.12412 5.96578 6.09781C6.05645 6.07151 6.14086 6.02714 6.21394 5.96736C6.28701 5.90759 6.34724 5.83365 6.391 5.75C6.45268 5.64318 6.54148 5.55455 6.64842 5.49308C6.75537 5.43162 6.87666 5.39951 7 5.4C7.18565 5.4 7.3637 5.47375 7.49498 5.60502C7.62625 5.7363 7.7 5.91435 7.7 6.1C7.7 6.28565 7.62625 6.4637 7.49498 6.59497C7.3637 6.72625 7.18565 6.8 7 6.8C6.81435 6.8 6.6363 6.87375 6.50503 7.00502C6.37375 7.1363 6.3 7.31435 6.3 7.5V8.2C6.3 8.38565 6.37375 8.5637 6.50503 8.69497C6.6363 8.82625 6.81435 8.9 7 8.9C7.18565 8.9 7.3637 8.82625 7.49498 8.69497C7.62625 8.5637 7.7 8.38565 7.7 8.2V8.074C8.16296 7.90601 8.55215 7.58066 8.79954 7.15481C9.04693 6.72896 9.13678 6.2297 9.05338 5.74432C8.96998 5.25894 8.71864 4.81831 8.3433 4.49946C7.96795 4.18061 7.49248 4.00382 7 4Z" fill="#3E3E3E"/>
</svg>
