<svg width="58" height="42" viewBox="0 0 58 42" fill="none" xmlns="http://www.w3.org/2000/svg">
<path d="M4.22848 27.073L0.993857 35.4025C0.961345 35.5132 0.893765 35.6104 0.801285 35.6794C0.718465 35.744 0.616723 35.7797 0.511673 35.7809C0.337656 35.7809 0.209275 35.7325 0.126528 35.6357C0.0438525 35.5382 -5.95018e-05 35.4137 0.00316168 35.286C-0.00552934 35.2121 0.00376153 35.1373 0.0302423 35.0678L3.59584 25.8905C3.62996 25.7687 3.70518 25.6624 3.80873 25.5896C3.90418 25.5266 4.01834 25.4982 4.13219 25.5091C4.24814 25.508 4.36143 25.5439 4.45565 25.6114C4.55155 25.6781 4.62186 25.7755 4.65499 25.8875L8.20706 34.9745C8.23364 35.0492 8.24738 35.1277 8.24768 35.207C8.25157 35.2839 8.23888 35.3609 8.21045 35.4325C8.18203 35.5041 8.13854 35.5688 8.08294 35.6222C7.98344 35.7189 7.85008 35.7729 7.71133 35.7726C7.60267 35.7724 7.49704 35.7367 7.41044 35.6711C7.31412 35.5967 7.24211 35.4954 7.20357 35.38L3.92608 27.0587L4.22848 27.073ZM1.68215 33.0292L2.15005 31.8934H6.23845L6.44456 33.0292H1.68215Z" fill="url(#paint0_linear_2550_230)"/>
<path d="M14.8948 26.2383C15.8922 26.2383 16.6605 26.5281 17.1996 27.1079C17.7387 27.6876 18.008 28.5058 18.0075 29.5624C18.013 30.0973 17.8967 30.6264 17.6675 31.1098C17.4488 31.5722 17.1038 31.9633 16.6723 32.2381C16.235 32.518 15.6992 32.6707 15.0648 32.6962L15.0309 32.1614C15.4463 32.1644 15.859 32.2287 16.2556 32.3525C16.6785 32.4823 17.0737 32.6897 17.4208 32.964C17.7917 33.2613 18.0886 33.6406 18.2881 34.0721C18.5093 34.5304 18.6198 35.0969 18.6198 35.7714C18.6198 36.497 18.512 37.1053 18.2964 37.5963C18.1058 38.0523 17.8117 38.4576 17.4373 38.7803C17.0899 39.0748 16.6845 39.2929 16.2473 39.4205C15.819 39.5465 15.375 39.6108 14.9286 39.6115H10.4558C10.3633 39.613 10.2716 39.5934 10.1877 39.5544C10.1038 39.5153 10.0298 39.4577 9.97137 39.3859C9.84025 39.2317 9.77062 39.0346 9.77579 38.8322V27.0041C9.76944 26.8043 9.83936 26.6095 9.97137 26.4594C10.031 26.3894 10.1053 26.3334 10.189 26.2954C10.2728 26.2575 10.3639 26.2385 10.4558 26.2398L14.8948 26.2383ZM14.6909 27.7473H11.0343L11.2381 27.4035V32.1599L11.0516 31.9116H14.7248C14.9648 31.9145 15.2028 31.8676 15.4239 31.7739C15.6449 31.6802 15.844 31.5416 16.0088 31.367C16.3664 31.0045 16.5449 30.4666 16.5444 29.7535C16.5444 29.1161 16.3802 28.6226 16.0517 28.2731C15.7232 27.9235 15.2696 27.7488 14.6909 27.7488V27.7473ZM14.8271 33.4402H11.1193L11.2381 33.3063V38.2914L11.102 38.1236H14.8782C15.5472 38.1236 16.0941 37.9326 16.5188 37.5504C16.9436 37.1683 17.1562 36.576 17.1567 35.7736C17.1567 35.1503 17.0434 34.6696 16.8167 34.3316C16.6088 34.0099 16.3013 33.765 15.9411 33.6343C15.5836 33.5065 15.2067 33.4413 14.8271 33.4417V33.4402Z" fill="url(#paint1_linear_2550_230)"/>
<path d="M37.1916 36.9029C37.6466 37.5633 38.0318 38.2691 38.341 39.0091C38.8827 40.2962 40.6888 41.5667 42.1714 41.3072C42.8635 41.1853 43.5593 40.6979 43.5119 40.3496C43.4555 39.9299 42.376 40.1457 41.2138 39.5838C39.0948 38.5578 39.3588 36.2304 36.4875 33.9827C36.2859 33.8239 36.1114 33.7028 36.0038 33.6261C36.3482 33.4348 36.6558 33.1839 36.9125 32.8852C37.2426 32.5012 37.4978 32.0588 37.6648 31.5808C37.8493 31.0589 37.9415 30.5088 37.9371 29.9552C37.9371 29.1528 37.7866 28.4455 37.4858 27.8331C37.2121 27.2537 36.792 26.7556 36.2671 26.3881C35.7629 26.0386 35.1625 25.8546 34.549 25.8615H29.8551C29.7613 25.8606 29.6685 25.8816 29.5843 25.9229C29.5 25.9641 29.4266 26.0245 29.3699 26.0992C29.2368 26.2667 29.1675 26.4759 29.1743 26.6897V39.5011C29.1693 39.7239 29.2516 39.9399 29.4037 40.1029C29.4726 40.1816 29.5577 40.2445 29.6531 40.2873C29.7485 40.3301 29.852 40.3519 29.9566 40.3511C30.0481 40.3532 30.1385 40.3313 30.2189 40.2878C30.2994 40.2443 30.3671 40.1805 30.4155 40.1029C30.5331 39.9247 30.5927 39.7145 30.5862 39.5011V34.4694H34.1744C34.4218 34.469 34.668 34.504 34.9056 34.5732C35.1468 34.6483 35.3679 34.7768 35.5525 34.9493C35.6489 35.0376 35.7389 35.1326 35.8218 35.2336C36.2423 35.7422 36.6583 36.1311 37.1916 36.9029ZM34.549 32.9792H30.5862V27.451H34.464C35.0417 27.451 35.5207 27.6927 35.9008 28.1762C36.2809 28.6596 36.471 29.2671 36.471 29.9988C36.4791 30.5197 36.3838 31.0369 36.1904 31.5206C36.0028 31.9689 35.7646 32.3172 35.4758 32.5655C35.2194 32.7995 34.8944 32.9445 34.549 32.9792Z" fill="url(#paint2_linear_2550_230)"/>
<path d="M21.096 25.7819H26.136C26.2119 25.7807 26.2873 25.7948 26.3577 25.8232C26.4281 25.8516 26.4921 25.8939 26.546 25.9474C26.6021 26.0016 26.6462 26.067 26.6755 26.1393C26.7047 26.2116 26.7185 26.2892 26.716 26.3672C26.719 26.4441 26.7054 26.5207 26.6761 26.5919C26.6467 26.663 26.6023 26.727 26.546 26.7794C26.4353 26.8837 26.2881 26.9404 26.136 26.9374H21.5767L21.7046 26.6823V30.4774L21.5624 30.3126H25.4989C25.5758 30.3115 25.6521 30.3259 25.7234 30.355C25.7946 30.3841 25.8592 30.4272 25.9134 30.4819C25.9675 30.5365 26.0101 30.6015 26.0385 30.673C26.067 30.7445 26.0807 30.821 26.0788 30.8979C26.0818 30.9748 26.0682 31.0514 26.0388 31.1226C26.0095 31.1937 25.9652 31.2577 25.9088 31.3101C25.7981 31.4143 25.6509 31.4708 25.4989 31.4673H21.6053L21.7046 31.3327V35.218L21.6196 35.1127H26.133C26.2102 35.1119 26.2866 35.1275 26.3573 35.1585C26.428 35.1895 26.4913 35.2351 26.543 35.2924C26.6511 35.3997 26.7123 35.5456 26.713 35.6979C26.7155 35.7759 26.7017 35.8535 26.6725 35.9258C26.6432 35.9981 26.5991 36.0635 26.543 36.1177C26.4892 36.1714 26.4253 36.2137 26.3548 36.2421C26.2844 36.2705 26.2089 36.2845 26.133 36.2831H21.093C21.0166 36.2845 20.9407 36.2691 20.8709 36.2379C20.8011 36.2067 20.739 36.1605 20.6891 36.1026C20.5811 35.9839 20.5229 35.8282 20.5266 35.6678V26.3822C20.5224 26.224 20.5808 26.0704 20.6891 25.9549C20.7405 25.8986 20.8035 25.854 20.8737 25.8242C20.9439 25.7943 21.0197 25.7799 21.096 25.7819Z" fill="url(#paint3_linear_2550_230)"/>
<path d="M40.4603 27.5469C40.3859 27.5491 40.3118 27.5363 40.2424 27.5093C40.173 27.4823 40.1097 27.4416 40.0564 27.3897C39.9506 27.2779 39.8916 27.1298 39.8916 26.9759C39.8916 26.822 39.9506 26.674 40.0564 26.5622C40.1098 26.5104 40.1731 26.4698 40.2425 26.4428C40.3119 26.4158 40.3859 26.403 40.4603 26.405H47.0432C47.1953 26.402 47.3426 26.4584 47.4539 26.5622C47.5102 26.6148 47.5546 26.6789 47.5839 26.7502C47.6132 26.8214 47.6269 26.8982 47.6239 26.9752C47.6286 27.0534 47.6157 27.1317 47.5863 27.2043C47.5569 27.2769 47.5117 27.342 47.4539 27.3949C47.3407 27.4948 47.1941 27.5485 47.0432 27.5454L40.4603 27.5469ZM43.7438 36.9077C43.6643 36.9096 43.5853 36.8945 43.512 36.8635C43.4388 36.8325 43.3729 36.7863 43.3188 36.7279C43.2071 36.6108 43.1463 36.4542 43.1496 36.2924V27.0218H44.3532V36.2924C44.3564 36.4542 44.2956 36.6108 44.1839 36.7279C44.1274 36.7873 44.059 36.8341 43.9832 36.8651C43.9073 36.896 43.8257 36.9106 43.7438 36.9077Z" fill="url(#paint4_linear_2550_230)"/>
<path d="M57.8862 31.6578C57.8933 32.3854 57.7734 33.1086 57.5319 33.7949C57.3109 34.424 56.9747 35.0064 56.5404 35.5123C56.1237 35.997 55.6072 36.386 55.0262 36.6527C54.4231 36.9195 53.7708 37.0574 53.1113 37.0574C52.4518 37.0574 51.7996 36.9195 51.1965 36.6527C50.6194 36.3843 50.1064 35.9954 49.6921 35.5123C49.2578 35.0064 48.9216 34.424 48.7006 33.7949C48.2287 32.4046 48.2287 30.8975 48.7006 29.5072C48.9187 28.8795 49.2533 28.2987 49.6868 27.7951C50.1142 27.3071 50.641 26.9161 51.2318 26.6482C51.8226 26.3803 52.4638 26.2417 53.1125 26.2417C53.7612 26.2417 54.4024 26.3803 54.9932 26.6482C55.584 26.9161 56.1107 27.3071 56.5382 27.7951C56.9733 28.2976 57.3097 28.8777 57.5296 29.5049C57.7727 30.1964 57.8934 30.9249 57.8862 31.6578ZM56.6683 31.6578C56.6683 30.8379 56.5148 30.1127 56.2079 29.4823C55.9288 28.8846 55.4954 28.3721 54.9524 27.9974C54.4091 27.6327 53.7667 27.4442 53.1125 27.4573C52.4565 27.4451 51.8124 27.6336 51.2665 27.9974C50.7222 28.37 50.2891 28.8832 50.0133 29.4823C49.7124 30.1127 49.5619 30.8379 49.5619 31.6578C49.5619 32.4672 49.7124 33.1896 50.0133 33.825C50.2877 34.4271 50.7209 34.9431 51.2665 35.3174C51.8129 35.6816 52.4575 35.8701 53.114 35.8576C53.7677 35.8704 54.4096 35.6818 54.9524 35.3174C55.4959 34.9407 55.9286 34.4254 56.2057 33.825C56.5116 33.1901 56.6645 32.4677 56.6645 31.6578H56.6683Z" fill="url(#paint5_linear_2550_230)"/>
<path d="M3.25546 0.00151999C3.48809 0.00782473 3.71666 0.0640043 3.9257 0.16626C4.14658 0.261712 4.34134 0.408748 4.49364 0.595034L13.607 13.8133L12.4034 13.7802L21.6206 0.595034C21.9185 0.178294 22.3081 -0.0195426 22.7895 0.00151999C23.1463 0.0196483 23.486 0.159273 23.7524 0.397197C23.888 0.515809 23.9955 0.663183 24.0669 0.828583C24.1384 0.993983 24.172 1.17324 24.1654 1.35329V21.757C24.1678 21.9364 24.1322 22.1144 24.061 22.2791C23.9899 22.4439 23.8847 22.5918 23.7524 22.7131C23.4692 22.9678 23.1017 23.1087 22.7207 23.1087C22.3398 23.1087 21.9723 22.9678 21.689 22.7131C21.5568 22.5917 21.4518 22.4438 21.3807 22.2791C21.3097 22.1143 21.2743 21.9364 21.2768 21.757V3.85824L22.1366 4.02298L14.02 15.8572C13.8765 16.0155 13.708 16.1492 13.5212 16.2528C13.3385 16.3594 13.131 16.4162 12.9194 16.4176C12.7026 16.415 12.4898 16.3583 12.3004 16.2528C12.1063 16.1525 11.9316 16.0185 11.7843 15.8572L3.7715 4.02298L4.49364 3.16618V21.757C4.49732 21.9333 4.46596 22.1086 4.4014 22.2727C4.33684 22.4368 4.24035 22.5865 4.11753 22.7131C3.99392 22.8431 3.84426 22.9455 3.67834 23.0137C3.51242 23.0819 3.33396 23.1143 3.15466 23.1087C2.97776 23.1155 2.80151 23.0836 2.6382 23.0153C2.47489 22.9469 2.32845 22.8438 2.2091 22.7131C1.96827 22.4537 1.83771 22.1108 1.84502 21.757V1.35329C1.8454 1.17827 1.88058 1.00508 1.94851 0.843783C2.01643 0.682486 2.11576 0.536308 2.24069 0.413747C2.37143 0.277656 2.52935 0.170616 2.70419 0.0995922C2.87903 0.0285689 3.06686 -0.00484701 3.25546 0.00151999Z" fill="url(#paint6_linear_2550_230)"/>
<path d="M33.3499 3.46849L28.3754 16.2776C28.3248 16.4476 28.2209 16.5969 28.079 16.7033C27.952 16.8029 27.7958 16.8579 27.6344 16.8598C27.3666 16.8598 27.169 16.7846 27.0417 16.6341C26.9144 16.4846 26.8467 16.2934 26.8513 16.097C26.8383 15.9832 26.8527 15.8679 26.8935 15.7608L32.3765 1.65259C32.4305 1.4668 32.5462 1.30494 32.7045 1.19373C32.8514 1.09725 33.0268 1.05373 33.2017 1.07036C33.3802 1.06886 33.5545 1.12389 33.6997 1.22758C33.8467 1.33091 33.9548 1.48057 34.0066 1.65259L39.4679 15.6314C39.5094 15.7462 39.5311 15.8673 39.5318 15.9895C39.5367 16.1016 39.5189 16.2136 39.4796 16.3187C39.4403 16.4238 39.3803 16.52 39.3031 16.6015C39.2259 16.6829 39.1331 16.7481 39.0303 16.793C38.9274 16.8379 38.8166 16.8616 38.7043 16.8628C38.5361 16.8634 38.3724 16.8084 38.2387 16.7064C38.09 16.5911 37.9794 16.4339 37.9213 16.255L32.8843 3.44517L33.3499 3.46849ZM29.4338 12.627L30.1537 10.881H36.4409L36.7583 12.627H29.4338Z" fill="url(#paint7_linear_2550_230)"/>
<path d="M42.7381 23.4427C42.3692 23.4501 42.0116 23.3154 41.7391 23.0666C41.6081 22.9547 41.5031 22.8156 41.4315 22.6589C41.3599 22.5022 41.3234 22.3317 41.3246 22.1594V2.79307C41.3203 2.62831 41.3494 2.46438 41.4102 2.31118C41.4709 2.15797 41.5621 2.01867 41.6782 1.90167C41.7911 1.78425 41.9271 1.69159 42.0777 1.62956C42.2283 1.56753 42.3902 1.53749 42.553 1.54135H51.0315C52.1779 1.54135 53.212 1.80739 54.1337 2.33947C55.0463 2.86277 55.8041 3.61827 56.3303 4.52923C56.8724 5.45749 57.1437 6.52667 57.1442 7.73677C57.1505 8.58047 56.9833 9.41646 56.653 10.1928C56.3424 10.9252 55.8891 11.5884 55.3196 12.1437C54.75 12.6991 54.0756 13.1355 53.3356 13.4274L52.6586 12.9272C53.3398 13.0868 53.9788 13.3908 54.5324 13.8186C55.0955 14.2573 55.5573 14.8123 55.8864 15.4457C56.234 16.1026 56.4183 16.8692 56.4393 17.7453C56.48 18.5171 56.5301 19.1324 56.5898 19.5913C56.6495 20.0501 56.7422 20.4102 56.8681 20.6715C56.9803 20.9205 57.1614 21.1323 57.3902 21.2815C57.6655 21.4539 57.8677 21.7217 57.9581 22.0338C58.0035 22.1876 58.0118 22.35 57.9824 22.5077C57.953 22.6654 57.8866 22.8138 57.7888 22.941C57.6664 23.1289 57.4815 23.2675 57.2668 23.3321C57.0488 23.4039 56.8182 23.4295 56.5898 23.4074C56.3829 23.3932 56.1826 23.3289 56.006 23.2201C55.6426 23.0022 55.3202 22.7221 55.0537 22.3926C54.7468 22.028 54.4908 21.5014 54.2857 20.8129C54.0806 20.1244 53.9783 19.1858 53.9788 17.9973C53.9788 17.3298 53.8765 16.7769 53.6719 16.3386C53.4847 15.9232 53.201 15.5585 52.8444 15.2749C52.5 15.006 52.1018 14.8142 51.6769 14.7123C51.2444 14.6075 50.801 14.555 50.356 14.5558H43.5054L43.874 13.9924V22.1602C43.8825 22.4894 43.7738 22.8109 43.5671 23.0674C43.4675 23.19 43.3408 23.2878 43.1969 23.3529C43.053 23.4181 42.8959 23.4488 42.7381 23.4427ZM43.5054 12.3043H51.0277C51.6336 12.2582 52.214 12.0412 52.7015 11.6785C53.2235 11.3029 53.6535 10.7763 53.9916 10.0988C54.3296 9.42128 54.4993 8.65475 54.5008 7.7992C54.5008 6.69592 54.1578 5.77819 53.4718 5.04602C52.7857 4.31384 51.9206 3.94875 50.8765 3.95076H43.6287L43.874 3.35649V12.8678L43.5054 12.3043Z" fill="url(#paint8_linear_2550_230)"/>
<path d="M32.8825 20.6244C33.1471 20.6244 33.3617 20.4098 33.3617 20.1452C33.3617 19.8805 33.1471 19.666 32.8825 19.666C32.6179 19.666 32.4033 19.8805 32.4033 20.1452C32.4033 20.4098 32.6179 20.6244 32.8825 20.6244Z" fill="url(#paint9_linear_2550_230)"/>
<path d="M3.9616 38.8192C4.22624 38.8192 4.44077 38.6047 4.44077 38.34C4.44077 38.0754 4.22624 37.8608 3.9616 37.8608C3.69696 37.8608 3.48242 38.0754 3.48242 38.34C3.48242 38.6047 3.69696 38.8192 3.9616 38.8192Z" fill="url(#paint10_linear_2550_230)"/>
<path d="M23.1139 38.8192C23.3786 38.8192 23.5931 38.6047 23.5931 38.34C23.5931 38.0754 23.3786 37.8608 23.1139 37.8608C22.8493 37.8608 22.6348 38.0754 22.6348 38.34C22.6348 38.6047 22.8493 38.8192 23.1139 38.8192Z" fill="url(#paint11_linear_2550_230)"/>
<path d="M43.7985 38.8192C44.0632 38.8192 44.2777 38.6047 44.2777 38.34C44.2777 38.0754 44.0632 37.8608 43.7985 37.8608C43.5339 37.8608 43.3193 38.0754 43.3193 38.34C43.3193 38.6047 43.5339 38.8192 43.7985 38.8192Z" fill="url(#paint12_linear_2550_230)"/>
<defs>
<linearGradient id="paint0_linear_2550_230" x1="-0.000599497" y1="30.6477" x2="8.24768" y2="30.6477" gradientUnits="userSpaceOnUse">
<stop stop-color="#00739A"/>
<stop offset="0.65" stop-color="#00ADD4"/>
<stop offset="1" stop-color="#006D94"/>
</linearGradient>
<linearGradient id="paint1_linear_2550_230" x1="9.77579" y1="32.9257" x2="18.6198" y2="32.9257" gradientUnits="userSpaceOnUse">
<stop stop-color="#00739A"/>
<stop offset="0.65" stop-color="#00ADD4"/>
<stop offset="1" stop-color="#006D94"/>
</linearGradient>
<linearGradient id="paint2_linear_2550_230" x1="29.1743" y1="33.5998" x2="43.5142" y2="33.5998" gradientUnits="userSpaceOnUse">
<stop stop-color="#00739A"/>
<stop offset="0.65" stop-color="#00ADD4"/>
<stop offset="1" stop-color="#006D94"/>
</linearGradient>
<linearGradient id="paint3_linear_2550_230" x1="20.5296" y1="31.0325" x2="26.716" y2="31.0325" gradientUnits="userSpaceOnUse">
<stop stop-color="#00739A"/>
<stop offset="0.65" stop-color="#00ADD4"/>
<stop offset="1" stop-color="#006D94"/>
</linearGradient>
<linearGradient id="paint4_linear_2550_230" x1="39.8939" y1="31.6571" x2="47.6239" y2="31.6571" gradientUnits="userSpaceOnUse">
<stop stop-color="#00739A"/>
<stop offset="0.65" stop-color="#00ADD4"/>
<stop offset="1" stop-color="#006D94"/>
</linearGradient>
<linearGradient id="paint5_linear_2550_230" x1="48.3395" y1="31.6571" x2="57.8824" y2="31.6571" gradientUnits="userSpaceOnUse">
<stop stop-color="#00739A"/>
<stop offset="0.65" stop-color="#00ADD4"/>
<stop offset="1" stop-color="#006D94"/>
</linearGradient>
<linearGradient id="paint6_linear_2550_230" x1="1.84502" y1="11.5544" x2="24.1654" y2="11.5544" gradientUnits="userSpaceOnUse">
<stop stop-color="#00739A"/>
<stop offset="0.65" stop-color="#00ADD4"/>
<stop offset="1" stop-color="#006D94"/>
</linearGradient>
<linearGradient id="paint7_linear_2550_230" x1="26.8461" y1="8.96434" x2="39.5318" y2="8.96434" gradientUnits="userSpaceOnUse">
<stop stop-color="#00739A"/>
<stop offset="0.65" stop-color="#00ADD4"/>
<stop offset="1" stop-color="#006D94"/>
</linearGradient>
<linearGradient id="paint8_linear_2550_230" x1="41.3246" y1="12.4924" x2="58.001" y2="12.4924" gradientUnits="userSpaceOnUse">
<stop stop-color="#00739A"/>
<stop offset="0.65" stop-color="#00ADD4"/>
<stop offset="1" stop-color="#006D94"/>
</linearGradient>
<linearGradient id="paint9_linear_2550_230" x1="32.4033" y1="20.1452" x2="33.3609" y2="20.1452" gradientUnits="userSpaceOnUse">
<stop stop-color="#00739A"/>
<stop offset="0.65" stop-color="#00ADD4"/>
<stop offset="1" stop-color="#006D94"/>
</linearGradient>
<linearGradient id="paint10_linear_2550_230" x1="3.48317" y1="38.34" x2="4.44077" y2="38.34" gradientUnits="userSpaceOnUse">
<stop stop-color="#00739A"/>
<stop offset="0.65" stop-color="#00ADD4"/>
<stop offset="1" stop-color="#006D94"/>
</linearGradient>
<linearGradient id="paint11_linear_2550_230" x1="22.6355" y1="38.34" x2="23.5931" y2="38.34" gradientUnits="userSpaceOnUse">
<stop stop-color="#00739A"/>
<stop offset="0.65" stop-color="#00ADD4"/>
<stop offset="1" stop-color="#006D94"/>
</linearGradient>
<linearGradient id="paint12_linear_2550_230" x1="43.3201" y1="38.34" x2="44.2777" y2="38.34" gradientUnits="userSpaceOnUse">
<stop stop-color="#00739A"/>
<stop offset="0.65" stop-color="#00ADD4"/>
<stop offset="1" stop-color="#006D94"/>
</linearGradient>
</defs>
</svg>
