<svg width="14" height="15" viewBox="0 0 14 15" fill="none" xmlns="http://www.w3.org/2000/svg">
<path d="M9.94879 0.000690893C10.2434 0.0184581 10.4706 0.261924 10.4628 0.551307V1.32748C12.8029 1.5464 14 2.79357 14 5.03584V11.2386C14 13.7329 12.5256 15 9.62416 15H4.37585C1.4744 15 0 13.7329 0 11.2386V5.03584C0 3.54321 0.527536 2.47515 1.60966 1.85156L1.68557 1.80984C1.84243 1.73924 2.02642 1.74571 2.17935 1.83132C2.35776 1.9312 2.46312 2.12157 2.45132 2.32274C2.43951 2.5239 2.31259 2.70116 2.12367 2.78031C1.40676 3.19161 1.0686 3.90807 1.0686 5.03584V5.23486H10.9362C11.2313 5.23486 11.4705 5.4695 11.4705 5.75894C11.4705 6.04838 11.2313 6.28302 10.9362 6.28302H1.0686V11.2386C1.0686 13.1425 2.02899 13.9319 4.37585 13.9452H9.62416C11.9372 13.9452 12.9246 13.1359 12.9246 11.2319V5.02921C12.9246 3.37073 12.1739 2.56802 10.4628 2.37564V2.87982C10.4233 3.14855 10.1835 3.34473 9.90686 3.33449C9.63026 3.32425 9.40614 3.1109 9.38744 2.84001V0.504869L9.39733 0.421917C9.41935 0.313214 9.47615 0.213372 9.56056 0.13756C9.66607 0.0427942 9.80592 -0.00650856 9.94879 0.000690893ZM10.2566 10.6477L10.3427 10.6531C10.4903 10.671 10.6288 10.7363 10.7358 10.8401C10.8641 10.9647 10.9362 11.1344 10.9362 11.3115C10.9362 11.6779 10.6334 11.9749 10.2599 11.9749C9.88638 11.9749 9.58358 11.6779 9.58358 11.3115C9.58358 10.9452 9.88638 10.6481 10.2599 10.6481L10.2566 10.6477ZM7.01353 10.6481L7.09836 10.6533C7.43185 10.6942 7.68986 10.9733 7.68986 11.3115C7.68986 11.6779 7.38705 11.9749 7.01353 11.9749C6.64 11.9749 6.3372 11.6779 6.3372 11.3115C6.3372 10.9452 6.64 10.6481 7.01353 10.6481ZM3.77067 10.6477L3.85668 10.6531C4.00435 10.671 4.14285 10.7363 4.24976 10.8401C4.37807 10.9647 4.45024 11.1344 4.45024 11.3115C4.45024 11.6779 4.14744 11.9749 3.77391 11.9749C3.40039 11.9749 3.09758 11.6779 3.09758 11.3115C3.09758 10.9452 3.40039 10.6481 3.77391 10.6481L3.77067 10.6477ZM10.2566 7.96125L10.3427 7.96635C10.4903 7.98421 10.6288 8.04951 10.7358 8.15335C10.8641 8.27795 10.9362 8.4477 10.9362 8.6248C10.9362 8.99118 10.6334 9.28819 10.2599 9.28819C9.88638 9.28819 9.58358 8.99118 9.58358 8.6248C9.58358 8.25841 9.88638 7.9614 10.2599 7.9614L10.2566 7.96125ZM7.01353 7.9614L7.09836 7.96657C7.43185 8.00751 7.68986 8.2866 7.68986 8.6248C7.68986 8.99118 7.38705 9.28819 7.01353 9.28819C6.64 9.28819 6.3372 8.99118 6.3372 8.6248C6.3372 8.25841 6.64 7.9614 7.01353 7.9614ZM3.77067 7.96125L3.85668 7.96635C4.00435 7.98421 4.14285 8.04951 4.24976 8.15335C4.37807 8.27795 4.45024 8.4477 4.45024 8.6248C4.45024 8.99118 4.14744 9.28819 3.77391 9.28819C3.40039 9.28819 3.09758 8.99118 3.09758 8.6248C3.09758 8.25841 3.40039 7.9614 3.77391 7.9614L3.77067 7.96125ZM4.07488 0.0798355C4.35033 0.0798355 4.58181 0.282815 4.61256 0.551307V1.2744H7.66957C7.96465 1.2744 8.20387 1.50904 8.20387 1.79849C8.20387 2.08793 7.96465 2.32257 7.66957 2.32257H4.59903V2.84665C4.59905 2.9868 4.54183 3.12111 4.44016 3.21959C4.33849 3.31807 4.20084 3.3725 4.05797 3.37073L3.97984 3.3632C3.72528 3.32006 3.53374 3.10084 3.53715 2.84001V0.551307L3.55225 0.472862C3.61468 0.244249 3.82698 0.0798355 4.07488 0.0798355Z" fill="#006D94"/>
</svg>
