<svg width="14" height="15" viewBox="0 0 14 15" fill="none" xmlns="http://www.w3.org/2000/svg">
<rect y="0.498291" width="14" height="14" fill="white"/>
<path d="M7.41474 8.20017L5.80436 9.80354C5.73874 9.86863 5.68665 9.94607 5.6511 10.0314C5.61556 10.1167 5.59725 10.2082 5.59725 10.3007C5.59725 10.3931 5.61556 10.4846 5.6511 10.5699C5.68665 10.6552 5.73874 10.7327 5.80436 10.7978C5.86945 10.8634 5.94689 10.9155 6.03221 10.951C6.11753 10.9866 6.20905 11.0049 6.30148 11.0049C6.39391 11.0049 6.48542 10.9866 6.57075 10.951C6.65607 10.9155 6.73351 10.8634 6.7986 10.7978L9.59925 7.99712C9.663 7.93053 9.71296 7.85201 9.74629 7.76607C9.81632 7.5956 9.81632 7.4044 9.74629 7.23394C9.71296 7.148 9.663 7.06948 9.59925 7.00289L6.7986 4.20223C6.73331 4.13695 6.65581 4.08516 6.57052 4.04983C6.48522 4.0145 6.3938 3.99632 6.30148 3.99632C6.20916 3.99632 6.11774 4.0145 6.03244 4.04983C5.94715 4.08516 5.86964 4.13695 5.80436 4.20223C5.73908 4.26751 5.68729 4.34501 5.65196 4.43031C5.61663 4.5156 5.59845 4.60702 5.59845 4.69935C5.59845 4.79167 5.61663 4.88309 5.65196 4.96838C5.68729 5.05368 5.73908 5.13118 5.80436 5.19646L7.41474 6.79984H0.700164C0.514469 6.79984 0.33638 6.87361 0.205073 7.00491C0.0737671 7.13622 0 7.31431 0 7.5C0 7.6857 0.0737671 7.86379 0.205073 7.9951C0.33638 8.1264 0.514469 8.20017 0.700164 8.20017H7.41474ZM7.00164 0.498361C5.6931 0.492519 4.40911 0.853493 3.2953 1.54034C2.1815 2.22719 1.28246 3.21241 0.700164 4.38427C0.616602 4.5514 0.602852 4.74487 0.66194 4.92214C0.721027 5.0994 0.848113 5.24593 1.01524 5.32949C1.18236 5.41306 1.37584 5.42681 1.5531 5.36772C1.73037 5.30863 1.8769 5.18155 1.96046 5.01442C2.4031 4.12054 3.07641 3.36107 3.9108 2.8145C4.7452 2.26793 5.71042 1.95408 6.7067 1.90541C7.70299 1.85673 8.6942 2.07497 9.57791 2.5376C10.4616 3.00022 11.2058 3.69043 11.7334 4.53691C12.2611 5.38338 12.5532 6.35541 12.5794 7.35254C12.6057 8.34967 12.3652 9.33572 11.8828 10.2088C11.4005 11.0819 10.6937 11.8103 9.83558 12.3188C8.97746 12.8273 7.99911 13.0975 7.00164 13.1013C5.95761 13.1058 4.93347 12.8159 4.04673 12.2648C3.16 11.7137 2.44662 10.9237 1.98847 9.98559C1.9049 9.81846 1.75837 9.69138 1.58111 9.63229C1.40385 9.5732 1.21037 9.58695 1.04324 9.67051C0.876119 9.75408 0.749034 9.90061 0.689946 10.0779C0.630858 10.2551 0.644608 10.4486 0.728171 10.6157C1.28328 11.7329 2.12676 12.6814 3.17137 13.3632C4.21598 14.045 5.42379 14.4354 6.66985 14.4939C7.91591 14.5525 9.15499 14.277 10.2589 13.6961C11.3628 13.1152 12.2915 12.2499 12.9489 11.1897C13.6063 10.1296 13.9685 8.91303 13.998 7.66595C14.0276 6.41886 13.7234 5.18652 13.117 4.09639C12.5106 3.00626 11.624 2.09793 10.5489 1.46536C9.47371 0.832791 8.24908 0.498946 7.00164 0.498361Z" fill="#3E3E3E"/>
</svg>
