<svg width="14" height="15" viewBox="0 0 14 15" fill="none" xmlns="http://www.w3.org/2000/svg">
<rect y="0.510315" width="14" height="14" fill="white"/>
<path d="M11.9086 2.54621C10.7656 1.39568 9.25693 0.680017 7.64277 0.522593C6.02861 0.365169 4.4101 0.775852 3.06628 1.68384C1.72246 2.59183 0.737534 3.94022 0.281315 5.49655C-0.174904 7.05288 -0.073832 8.71961 0.567107 10.2094C0.63391 10.3479 0.655829 10.5037 0.629807 10.6553L0.0167503 13.6021C-0.00686892 13.7151 -0.00204583 13.8322 0.0307862 13.9428C0.0636183 14.0535 0.12343 14.1543 0.204847 14.2361C0.27159 14.3023 0.351057 14.3544 0.438459 14.3891C0.525861 14.4238 0.619389 14.4405 0.713405 14.4381H0.852736L3.83442 13.839C3.98596 13.8208 4.13964 13.8424 4.28028 13.9017C5.77007 14.5426 7.43681 14.6437 8.99314 14.1875C10.5495 13.7313 11.8979 12.7463 12.8058 11.4025C13.7138 10.0587 14.1245 8.44018 13.9671 6.82602C13.8097 5.21186 13.094 3.7032 11.9435 2.56014L11.9086 2.54621ZM12.4869 8.37024C12.3507 9.20203 12.0276 9.9921 11.5419 10.681C11.0562 11.3699 10.4206 11.9396 9.68294 12.3473C8.94525 12.7551 8.12469 12.9902 7.28301 13.035C6.44133 13.0798 5.60046 12.9331 4.82367 12.6059C4.54817 12.4887 4.25222 12.4272 3.95285 12.4248C3.82207 12.4257 3.69159 12.4373 3.56272 12.4596L1.59816 12.8567L1.99525 10.8921C2.07434 10.4667 2.02335 10.0272 1.84895 9.63118C1.5218 8.8544 1.37509 8.01352 1.41988 7.17184C1.46466 6.33016 1.69977 5.5096 2.10751 4.77191C2.51525 4.03423 3.085 3.39863 3.77388 2.91296C4.46276 2.42729 5.25282 2.10419 6.08461 1.96798C6.95771 1.82469 7.85238 1.89133 8.69461 2.16239C9.53685 2.43345 10.3024 2.90114 10.9281 3.52677C11.5537 4.15241 12.0214 4.918 12.2925 5.76024C12.5635 6.60247 12.6302 7.49714 12.4869 8.37024Z" fill="#3E3E3E"/>
</svg>
