<svg width="17" height="16" viewBox="0 0 17 16" fill="none" xmlns="http://www.w3.org/2000/svg">
<g id="boat">
<path id="Vector" d="M8.45007 3V1.5" stroke="#202626" stroke-linecap="round" stroke-linejoin="round"/>
<path id="Vector_2" d="M14.4501 9.99988C13.5376 13.1874 9.31257 14.2999 8.56257 14.4749C8.48877 14.4937 8.41137 14.4937 8.33757 14.4749C7.58757 14.2999 3.36257 13.1874 2.45007 9.99988V7.86238C2.45006 7.75708 2.48329 7.65448 2.54501 7.56923C2.60674 7.48393 2.69381 7.42028 2.79382 7.38738L8.29382 5.54988C8.39562 5.51853 8.50452 5.51853 8.60632 5.54988L14.1063 7.38738C14.2063 7.42028 14.2934 7.48393 14.3551 7.56923C14.4169 7.65448 14.4501 7.75708 14.4501 7.86238V9.99988Z" stroke="#202626" stroke-linecap="round" stroke-linejoin="round"/>
<path id="Vector_3" d="M8.45007 10.4999V5.5249" stroke="#202626" stroke-linecap="round" stroke-linejoin="round"/>
<path id="Vector_4" d="M3.95007 7V3.5C3.95007 3.36739 4.00275 3.24022 4.09652 3.14645C4.19029 3.05268 4.31746 3 4.45007 3H12.4501C12.5827 3 12.7099 3.05268 12.8036 3.14645C12.8974 3.24022 12.9501 3.36739 12.9501 3.5V7" stroke="#202626" stroke-linecap="round" stroke-linejoin="round"/>
</g>
</svg>
