<svg width="17" height="16" viewBox="0 0 17 16" fill="none" xmlns="http://www.w3.org/2000/svg">
<g id="drink">
<path id="Vector" fill-rule="evenodd" clip-rule="evenodd" d="M2.02807 2.30866C2.10546 2.12182 2.28778 2 2.49001 2H15.49C15.6922 2 15.8745 2.12182 15.9519 2.30866C16.0293 2.4955 15.9865 2.71055 15.8435 2.85355L9.34354 9.35355C9.14829 9.5488 8.83169 9.5488 8.63644 9.35355L2.13645 2.85355C1.99345 2.71055 1.95068 2.4955 2.02807 2.30866ZM3.69711 3L8.98999 8.2929L14.2829 3H3.69711Z" fill="#202626"/>
<path id="Vector_2" fill-rule="evenodd" clip-rule="evenodd" d="M8.98999 8.5C9.26614 8.5 9.48999 8.72385 9.48999 9V13.5C9.48999 13.7761 9.26614 14 8.98999 14C8.71384 14 8.48999 13.7761 8.48999 13.5V9C8.48999 8.72385 8.71384 8.5 8.98999 8.5Z" fill="#202626"/>
<path id="Vector_3" fill-rule="evenodd" clip-rule="evenodd" d="M5.98999 13.5C5.98999 13.2239 6.21384 13 6.48999 13H11.49C11.7661 13 11.99 13.2239 11.99 13.5C11.99 13.7761 11.7661 14 11.49 14H6.48999C6.21384 14 5.98999 13.7761 5.98999 13.5Z" fill="#202626"/>
<path id="Vector_4" fill-rule="evenodd" clip-rule="evenodd" d="M3.98999 4.5C3.98999 4.22386 4.21385 4 4.48999 4H13.49C13.7661 4 13.99 4.22386 13.99 4.5C13.99 4.77614 13.7661 5 13.49 5H4.48999C4.21385 5 3.98999 4.77614 3.98999 4.5Z" fill="#202626"/>
</g>
</svg>
