<svg width="23" height="26" viewBox="0 0 23 26" fill="none" xmlns="http://www.w3.org/2000/svg">
<g id="Group 10">
<path id="Vector" d="M11.0377 8.91406C10.3247 8.914 9.6277 9.12538 9.03486 9.52145C8.44202 9.91752 7.97994 10.4805 7.70707 11.1392C7.4342 11.7979 7.36279 12.5227 7.50187 13.222C7.64095 13.9213 7.98427 14.5636 8.48842 15.0677C8.99257 15.5719 9.6349 15.9152 10.3342 16.0543C11.0335 16.1934 11.7583 16.122 12.417 15.8491C13.0757 15.5762 13.6386 15.1141 14.0347 14.5213C14.4308 13.9285 14.6422 13.2315 14.6421 12.5185C14.642 11.5626 14.2622 10.6458 13.5863 9.96987C12.9103 9.29392 11.9936 8.91414 11.0377 8.91406Z" fill="#444444"/>
<path id="Vector_2" d="M7.26381 15.6433C6.5339 14.7657 6.13475 13.66 6.13581 12.5185C6.13581 9.8157 8.33463 7.61689 11.0374 7.61689C12.1788 7.61598 13.2844 8.01523 14.1619 8.74518L16.518 6.38904C15.3589 3.75437 13.4638 1.504 11.0235 0C6.80752 2.61333 4.22115 7.45985 4.27122 12.6613C4.28251 14.3834 4.59891 16.0897 5.20574 17.7013L7.26381 15.6433Z" fill="#444444"/>
<path id="Vector_3" d="M14.8103 9.39444C15.5403 10.2718 15.9394 11.3773 15.9383 12.5186C15.9383 15.2214 13.7395 17.4202 11.037 17.4202C9.89556 17.4212 8.78989 17.022 7.91225 16.2922L5.58691 18.6175C7.42958 22.6448 10.6029 24.7583 11.0441 25.0371C11.6663 24.6424 17.7333 20.5885 17.8029 12.6617C17.8195 10.8395 17.51 9.02911 16.8891 7.31592L14.8103 9.39444Z" fill="#444444"/>
<path id="Vector_4" d="M5.21393 17.7012C4.79694 18.113 4.37975 18.525 3.96237 18.937C3.74568 18.7253 3.45633 18.6043 3.15343 18.5988C2.85054 18.5933 2.55698 18.7037 2.33274 18.9074L0 21.0185L1.99378 23.2209L4.32593 21.1098C4.52734 20.9278 4.66045 20.6825 4.70314 20.4144C4.74583 20.1464 4.69553 19.8718 4.56059 19.6363L5.58696 18.6191C5.41654 18.3344 5.29065 18.0254 5.21363 17.7027L5.21393 17.7012Z" fill="#444444"/>
<path id="Vector_5" d="M20.1839 1.83105L17.8295 3.91757C17.6268 4.09788 17.4917 4.34187 17.4463 4.60931C17.401 4.87674 17.4481 5.15164 17.58 5.38868L16.543 6.39609C16.7103 6.68269 16.833 6.99312 16.9068 7.31668L18.1714 6.09357C18.3858 6.30764 18.6739 6.43181 18.9767 6.44073C19.2796 6.44965 19.5744 6.34265 19.801 6.14157L22.1554 4.05505L20.1839 1.83105Z" fill="#444444"/>
</g>
</svg>
