<svg width="17" height="16" viewBox="0 0 17 16" fill="none" xmlns="http://www.w3.org/2000/svg">
<g id="snorkel">
<path id="Vector" fill-rule="evenodd" clip-rule="evenodd" d="M3.04004 7.5C3.04004 6.9477 3.48775 6.5 4.04004 6.5H11.04C11.5923 6.5 12.04 6.9477 12.04 7.5V9.5C12.04 10.0523 11.5923 10.5 11.04 10.5H8.80764C8.47329 10.5 8.16104 10.3329 7.97559 10.0547L7.54004 9.4014L7.10449 10.0547C6.91904 10.3329 6.60679 10.5 6.27244 10.5H4.04004C3.48775 10.5 3.04004 10.0523 3.04004 9.5V7.5ZM4.04004 7.5V9.5H6.27244L6.99919 8.40985C7.25649 8.02395 7.82359 8.02395 8.08089 8.40985L8.80764 9.5H11.04V7.5H4.04004Z" fill="#202626"/>
<path id="Vector_2" fill-rule="evenodd" clip-rule="evenodd" d="M13.54 1.5C13.8162 1.5 14.04 1.72386 14.04 2V11C14.04 12.3807 12.9207 13.5 11.54 13.5H8.54004C8.26389 13.5 8.04004 13.2761 8.04004 13C8.04004 12.7239 8.26389 12.5 8.54004 12.5H11.54C12.3685 12.5 13.04 11.8285 13.04 11V2C13.04 1.72386 13.2639 1.5 13.54 1.5Z" fill="#202626"/>
<path id="Vector_3" fill-rule="evenodd" clip-rule="evenodd" d="M7.54004 12.5C7.26389 12.5 7.04004 12.7239 7.04004 13C7.04004 13.2761 7.26389 13.5 7.54004 13.5C7.81619 13.5 8.04004 13.2761 8.04004 13C8.04004 12.7239 7.81619 12.5 7.54004 12.5ZM6.04004 13C6.04004 12.1715 6.71159 11.5 7.54004 11.5C8.36849 11.5 9.04004 12.1715 9.04004 13C9.04004 13.8284 8.36849 14.5 7.54004 14.5C6.71159 14.5 6.04004 13.8284 6.04004 13Z" fill="#202626"/>
</g>
</svg>
