<svg width="12" height="13" viewBox="0 0 12 13" fill="none" xmlns="http://www.w3.org/2000/svg">
<path id="Vector" fill-rule="evenodd" clip-rule="evenodd" d="M5.75053 1.07792L4.20178 4.40792L0.504276 4.88417C0.432743 4.89311 0.365302 4.92248 0.310031 4.96876C0.254759 5.01504 0.214 5.07628 0.192632 5.14513C0.171265 5.21398 0.170196 5.28753 0.189553 5.35697C0.20891 5.42641 0.247873 5.4888 0.301776 5.53667L3.03928 8.00042L2.30053 11.6942C2.28661 11.7648 2.29331 11.8379 2.31984 11.9048C2.34636 11.9718 2.39158 12.0296 2.4501 12.0715C2.50862 12.1134 2.57796 12.1376 2.64985 12.1412C2.72174 12.1448 2.79314 12.1276 2.85553 12.0917L6.08803 10.2167L9.32428 12.0917C9.38666 12.1276 9.45806 12.1448 9.52995 12.1412C9.60184 12.1376 9.67119 12.1134 9.7297 12.0715C9.78822 12.0296 9.83344 11.9718 9.85997 11.9048C9.88649 11.8379 9.89319 11.7648 9.87928 11.6942L9.14053 8.00042L11.878 5.53667C11.9308 5.48835 11.9687 5.42592 11.9872 5.35676C12.0057 5.28759 12.004 5.21459 11.9823 5.14636C11.9606 5.07814 11.9198 5.01755 11.8648 4.97175C11.8098 4.92596 11.7428 4.89687 11.6718 4.88792L7.97428 4.40792L6.42928 1.07792C6.39945 1.01245 6.35141 0.956942 6.29091 0.918018C6.2304 0.879095 6.15997 0.858398 6.08803 0.858398C6.01608 0.858398 5.94565 0.879095 5.88515 0.918018C5.82464 0.956942 5.77661 1.01245 5.74678 1.07792H5.75053Z" fill="#222222"/>
</svg>
