<svg width="17" height="16" viewBox="0 0 17 16" fill="none" xmlns="http://www.w3.org/2000/svg">
<g id="sail-boat">
<path id="Vector" fill-rule="evenodd" clip-rule="evenodd" d="M8.12013 1.64392C8.12013 0.956419 9.00713 0.680919 9.39663 1.24742L13.9936 7.93342C14.4496 8.59692 13.9746 9.49992 13.1696 9.49992H9.11963V10.4999H13.6861C14.4846 10.4999 14.9611 11.3899 14.5181 12.0549L13.9266 12.9414C13.6071 13.4207 13.1741 13.8138 12.6662 14.0856C12.1584 14.3575 11.5912 14.4998 11.0151 14.4999H6.22613C5.64997 14.4999 5.08272 14.3576 4.57473 14.0858C4.06675 13.8139 3.63374 13.4208 3.31413 12.9414L2.72263 12.0544C2.27913 11.3899 2.75563 10.4999 3.55413 10.4999H8.12013V1.64392ZM9.12013 8.49992H13.1696L9.11963 2.60992L9.12013 8.49992ZM3.55413 11.4999L4.14563 12.3864C4.37384 12.7288 4.68304 13.0096 5.04579 13.2038C5.40855 13.3981 5.81364 13.4998 6.22513 13.4999H11.0141C11.4257 13.4999 11.8309 13.3982 12.1937 13.204C12.5566 13.0097 12.8659 12.7289 13.0941 12.3864L13.6856 11.4999H3.55413Z" fill="#202626"/>
</g>
</svg>
