<svg width="15" height="16" viewBox="0 0 15 16" fill="none" xmlns="http://www.w3.org/2000/svg">
<path id="Vector" d="M14.302 11.2819C14.1932 11.1521 14.0568 11.0482 13.9027 10.9779C13.7486 10.9076 13.5807 10.8726 13.4113 10.8757H12.4426L7.2603 2.77148V1.5944C7.2603 1.37201 7.17197 1.15872 7.01468 1.00148C6.85744 0.844192 6.64415 0.755859 6.42176 0.755859C6.19936 0.755859 5.98608 0.844192 5.82879 1.00148C5.67155 1.15872 5.58322 1.37201 5.58322 1.5944V2.27669C4.44259 3.07878 2.15613 5.07357 1.84884 8.38086C1.82311 8.61862 1.84832 8.85909 1.9229 9.08633C1.99744 9.31357 2.11957 9.52226 2.28113 9.69857C2.4415 9.87226 2.6354 10.0116 2.85113 10.1083C3.06686 10.205 3.29999 10.257 3.53634 10.2611H5.58322V10.8757H1.1978C1.03718 10.8771 0.878426 10.9105 0.730874 10.974C0.583322 11.0375 0.449884 11.1298 0.338426 11.2454C0.212749 11.3707 0.117749 11.5233 0.0608217 11.6914C0.00392062 11.8594 -0.0133815 12.0384 0.0102903 12.2142C0.110301 13.1155 0.39202 13.9873 0.838426 14.7767C0.888842 14.879 0.959624 14.9699 1.04639 15.0439C1.13317 15.1179 1.23415 15.1734 1.34311 15.2071C1.45207 15.2407 1.56676 15.2517 1.68014 15.2396C1.79353 15.2274 1.90327 15.1922 2.00259 15.1361C2.10192 15.0801 2.18874 15.0043 2.2578 14.9136C2.32686 14.8228 2.37665 14.7189 2.40421 14.6083C2.43176 14.4976 2.43639 14.3825 2.41796 14.27C2.39947 14.1574 2.35822 14.0498 2.29676 13.9538C2.05431 13.5135 1.87874 13.0396 1.77593 12.5475H12.8436C12.7405 13.0428 12.565 13.5201 12.3228 13.9642C12.2697 14.0605 12.2361 14.1664 12.2242 14.2758C12.2122 14.3851 12.222 14.4958 12.253 14.6013C12.2839 14.7069 12.3355 14.8053 12.4047 14.8908C12.4739 14.9763 12.5594 15.0473 12.6561 15.0996C12.7792 15.1667 12.917 15.2025 13.0572 15.2038C13.2063 15.1986 13.3514 15.1539 13.4777 15.0743C13.604 14.9947 13.7069 14.883 13.7759 14.7506C14.2142 13.9603 14.492 13.0913 14.5936 12.1934V12.0996C14.6052 11.7997 14.5008 11.5068 14.302 11.2819ZM3.55197 8.58919L3.5103 8.56315C3.68014 6.98508 4.42113 5.52357 5.59363 4.45378V8.62044L3.55197 8.58919ZM7.2603 10.8757V5.86523L10.4582 10.8757H7.2603Z" fill="#777777"/>
</svg>
