<svg width="84" height="60" viewBox="0 0 84 60" fill="none" xmlns="http://www.w3.org/2000/svg">
<path d="M6.124 39.209L1.43938 51.2725C1.39229 51.4328 1.29442 51.5735 1.16048 51.6734C1.04054 51.767 0.893186 51.8187 0.741044 51.8204C0.489019 51.8204 0.303087 51.7504 0.183248 51.6102C0.0635106 51.469 -8.6175e-05 51.2887 0.00457899 51.1036C-0.00800801 50.9967 0.00544773 50.8883 0.0437991 50.7877L5.20778 37.4964C5.25719 37.3199 5.36612 37.166 5.51609 37.0606C5.65432 36.9694 5.81966 36.9282 5.98455 36.9441C6.15247 36.9425 6.31655 36.9944 6.45301 37.0922C6.5919 37.1888 6.69373 37.3298 6.74172 37.4921L11.8861 50.6526C11.9246 50.7606 11.9445 50.8745 11.9449 50.9892C11.9506 51.1007 11.9322 51.2121 11.891 51.3158C11.8498 51.4196 11.7869 51.5133 11.7063 51.5906C11.5622 51.7306 11.3691 51.8088 11.1681 51.8085C11.0108 51.8081 10.8578 51.7564 10.7324 51.6614C10.5929 51.5537 10.4886 51.4069 10.4328 51.2398L5.68604 39.1883L6.124 39.209ZM2.43622 47.8353L3.11386 46.1902H9.035L9.33351 47.8353H2.43622Z" fill="url(#paint0_linear_72_244)"/>
<path d="M21.5725 38C23.0171 38 24.1298 38.4198 24.9105 39.2594C25.6913 40.099 26.0813 41.2839 26.0806 42.8142C26.0885 43.5889 25.9201 44.3552 25.5882 45.0552C25.2714 45.7249 24.7717 46.2914 24.1468 46.6894C23.5135 47.0947 22.7374 47.3158 21.8187 47.3529L21.7697 46.5783C22.3713 46.5826 22.9689 46.6758 23.5433 46.855C24.1558 47.043 24.7281 47.3434 25.2308 47.7407C25.7681 48.1712 26.1981 48.7205 26.487 49.3455C26.8073 50.0093 26.9674 50.8297 26.9674 51.8065C26.9674 52.8575 26.8112 53.7385 26.4989 54.4495C26.2229 55.1099 25.7969 55.697 25.2548 56.1643C24.7517 56.5908 24.1644 56.9067 23.5313 57.0914C22.9111 57.2739 22.268 57.3671 21.6215 57.3682H15.1436C15.0096 57.3702 14.8768 57.3419 14.7553 57.2853C14.6338 57.2287 14.5267 57.1453 14.442 57.0413C14.2521 56.818 14.1513 56.5325 14.1588 56.2395V39.109C14.1496 38.8197 14.2509 38.5377 14.442 38.3203C14.5283 38.2189 14.636 38.1377 14.7573 38.0828C14.8786 38.0278 15.0105 38.0002 15.1436 38.0022L21.5725 38ZM21.2772 40.1854H15.9814L16.2767 39.6875V46.5761L16.0065 46.2166H21.3262C21.6739 46.2208 22.0187 46.1528 22.3387 46.0171C22.6588 45.8813 22.9473 45.6807 23.1859 45.4278C23.7038 44.9027 23.9623 44.1237 23.9616 43.091C23.9616 42.1678 23.7238 41.4532 23.248 40.9469C22.7723 40.4407 22.1154 40.1876 21.2772 40.1876V40.1854ZM21.4744 48.4303H16.1045L16.2767 48.2364V55.4562L16.0795 55.2132H21.5485C22.5174 55.2132 23.3094 54.9365 23.9246 54.3831C24.5397 53.8296 24.8477 52.9719 24.8484 51.8098C24.8484 50.907 24.6843 50.2109 24.356 49.7213C24.0548 49.2553 23.6094 48.9007 23.0879 48.7114C22.5701 48.5263 22.0243 48.4319 21.4744 48.4325V48.4303Z" fill="url(#paint1_linear_72_244)"/>
<path d="M53.863 53.4458C54.522 54.4023 55.0798 55.4246 55.5276 56.4963C56.312 58.3603 58.9278 60.2004 61.0751 59.8245C62.0774 59.648 63.0851 58.9421 63.0165 58.4377C62.9348 57.8298 61.3714 58.1424 59.6882 57.3286C56.6193 55.8426 57.0017 52.4719 52.8432 49.2166C52.5513 48.9867 52.2985 48.8113 52.1427 48.7002C52.6414 48.4231 53.087 48.0598 53.4588 47.6271C53.9368 47.071 54.3064 46.4303 54.5482 45.738C54.8155 44.9821 54.949 44.1854 54.9426 43.3837C54.9426 42.2216 54.7247 41.1972 54.2889 40.3104C53.8926 39.4712 53.2843 38.7499 52.524 38.2175C51.7938 37.7114 50.9242 37.4449 50.0357 37.4549H43.2376C43.1017 37.4536 42.9674 37.484 42.8454 37.5438C42.7234 37.6035 42.6171 37.691 42.5349 37.7992C42.3421 38.0417 42.2418 38.3448 42.2516 38.6544V57.2088C42.2444 57.5315 42.3636 57.8443 42.5839 58.0803C42.6837 58.1943 42.8069 58.2854 42.9451 58.3475C43.0833 58.4095 43.2332 58.441 43.3847 58.4398C43.5171 58.4428 43.6481 58.4112 43.7646 58.3482C43.8811 58.2851 43.9792 58.1928 44.0492 58.0803C44.2196 57.8223 44.306 57.5178 44.2965 57.2088V49.9215H49.4932C49.8515 49.921 50.2081 49.9716 50.5521 50.0718C50.9014 50.1806 51.2217 50.3668 51.4891 50.6165C51.6286 50.7444 51.759 50.882 51.8791 51.0283C52.4881 51.7648 53.0905 52.3281 53.863 53.4458ZM50.0357 47.7633H44.2965V39.7569H49.9126C50.7493 39.7569 51.4429 40.107 51.9935 40.8072C52.544 41.5073 52.8193 42.3872 52.8193 43.4469C52.8311 44.2012 52.693 44.9503 52.4129 45.6508C52.1413 46.3001 51.7963 46.8046 51.3779 47.1641C51.0066 47.503 50.5359 47.7131 50.0357 47.7633Z" fill="url(#paint2_linear_72_244)"/>
<path d="M30.5521 37.3396H37.8514C37.9613 37.3378 38.0705 37.3582 38.1725 37.3993C38.2744 37.4405 38.3671 37.5017 38.4451 37.5792C38.5263 37.6577 38.5902 37.7524 38.6326 37.8571C38.675 37.9618 38.695 38.0742 38.6913 38.1871C38.6957 38.2985 38.676 38.4095 38.6335 38.5126C38.591 38.6156 38.5267 38.7083 38.4451 38.7842C38.2848 38.9352 38.0716 39.0174 37.8514 39.0129H31.2482L31.4334 38.6436V44.1399L31.2275 43.9013H36.9286C37.04 43.8996 37.1506 43.9205 37.2537 43.9626C37.3569 44.0047 37.4505 44.0672 37.5289 44.1464C37.6073 44.2255 37.669 44.3197 37.7102 44.4232C37.7513 44.5267 37.7712 44.6375 37.7686 44.7489C37.7729 44.8603 37.7531 44.9712 37.7106 45.0743C37.6681 45.1773 37.6039 45.27 37.5223 45.3459C37.362 45.4968 37.1487 45.5786 36.9286 45.5736H31.2896L31.4334 45.3786V51.0056L31.3103 50.853H37.847C37.9588 50.8519 38.0695 50.8745 38.1719 50.9194C38.2742 50.9643 38.3659 51.0304 38.4407 51.1134C38.5974 51.2688 38.686 51.48 38.687 51.7006C38.6907 51.8135 38.6707 51.926 38.6283 52.0307C38.5859 52.1354 38.522 52.2301 38.4407 52.3086C38.3629 52.3863 38.2703 52.4476 38.1683 52.4888C38.0662 52.53 37.957 52.5502 37.847 52.5482H30.5477C30.437 52.5502 30.3272 52.5278 30.2261 52.4826C30.125 52.4375 30.035 52.3706 29.9627 52.2868C29.8063 52.1148 29.7221 51.8894 29.7274 51.6571V38.2089C29.7213 37.9797 29.8059 37.7574 29.9627 37.5901C30.0372 37.5086 30.1284 37.444 30.2301 37.4008C30.3318 37.3575 30.4416 37.3367 30.5521 37.3396Z" fill="url(#paint3_linear_72_244)"/>
<path d="M58.5986 39.8955C58.4908 39.8987 58.3835 39.8802 58.283 39.8411C58.1825 39.8019 58.0908 39.743 58.0135 39.6678C57.8603 39.506 57.7749 39.2915 57.7749 39.0686C57.7749 38.8457 57.8603 38.6313 58.0135 38.4694C58.091 38.3945 58.1826 38.3357 58.2831 38.2966C58.3836 38.2575 58.4908 38.2388 58.5986 38.2418H68.1323C68.3527 38.2374 68.566 38.3191 68.7272 38.4694C68.8088 38.5456 68.873 38.6384 68.9155 38.7417C68.958 38.8449 68.9777 38.956 68.9734 39.0676C68.9801 39.1808 68.9616 39.2942 68.919 39.3993C68.8764 39.5045 68.8108 39.5988 68.7272 39.6755C68.5632 39.8201 68.3509 39.8979 68.1323 39.8934L58.5986 39.8955ZM63.354 53.4526C63.2388 53.4553 63.1244 53.4334 63.0183 53.3885C62.9122 53.3436 62.8168 53.2767 62.7385 53.1922C62.5767 53.0226 62.4886 52.7958 62.4933 52.5614V39.1351H64.2365V52.5614C64.2412 52.7958 64.1531 53.0226 63.9913 53.1922C63.9096 53.2782 63.8105 53.3459 63.7006 53.3908C63.5908 53.4357 63.4726 53.4568 63.354 53.4526Z" fill="url(#paint4_linear_72_244)"/>
<path d="M83.8353 45.8494C83.8456 46.9031 83.672 47.9505 83.3222 48.9445C83.0022 49.8556 82.5153 50.699 81.8863 51.4317C81.2828 52.1338 80.5347 52.6972 79.6933 53.0833C78.8198 53.4698 77.8752 53.6694 76.9201 53.6694C75.965 53.6694 75.0204 53.4698 74.1469 53.0833C73.3111 52.6946 72.5681 52.1314 71.968 51.4317C71.339 50.699 70.8521 49.8556 70.5321 48.9445C69.8487 46.931 69.8487 44.7482 70.5321 42.7347C70.848 41.8257 71.3326 40.9844 71.9604 40.2551C72.5794 39.5484 73.3423 38.9821 74.1979 38.5941C75.0536 38.2061 75.9822 38.0054 76.9217 38.0054C77.8612 38.0054 78.7899 38.2061 79.6455 38.5941C80.5012 38.9821 81.264 39.5484 81.8831 40.2551C82.5132 40.9828 83.0004 41.823 83.3189 42.7314C83.6711 43.7328 83.8458 44.7879 83.8353 45.8494ZM82.0715 45.8494C82.0715 44.6619 81.8493 43.6117 81.4048 42.6987C81.0005 41.833 80.3729 41.0907 79.5865 40.5482C78.7996 40.02 77.8692 39.7469 76.9217 39.7659C75.9717 39.7482 75.0389 40.0212 74.2482 40.5482C73.4599 41.0878 72.8327 41.831 72.4332 42.6987C71.9974 43.6117 71.7795 44.6619 71.7795 45.8494C71.7795 47.0216 71.9974 48.0679 72.4332 48.9881C72.8306 49.8601 73.4581 50.6073 74.2482 51.1496C75.0395 51.677 75.9731 51.9499 76.9239 51.9318C77.8707 51.9504 78.8002 51.6773 79.5865 51.1496C80.3735 50.6039 81.0002 49.8576 81.4015 48.9881C81.8446 48.0686 82.0661 47.0224 82.0661 45.8494H82.0715Z" fill="url(#paint5_linear_72_244)"/>
<path d="M4.71403 0.00220137C5.05094 0.0113324 5.38197 0.0926959 5.68473 0.24079C6.00462 0.379031 6.28669 0.59198 6.50726 0.861773L19.7059 20.0055L17.9628 19.9576L31.3118 0.861773C31.7432 0.25822 32.3075 -0.0283031 33.0048 0.00220137C33.5214 0.0284562 34.0135 0.230671 34.3993 0.575251C34.5957 0.747034 34.7513 0.960473 34.8548 1.20002C34.9582 1.43956 35.007 1.69918 34.9974 1.95994V31.5101C35.0008 31.77 34.9493 32.0277 34.8462 32.2663C34.7432 32.5049 34.5909 32.7191 34.3993 32.8948C33.989 33.2637 33.4568 33.4678 32.9051 33.4678C32.3534 33.4678 31.8211 33.2637 31.4109 32.8948C31.2195 32.719 31.0673 32.5049 30.9644 32.2662C30.8616 32.0276 30.8103 31.7699 30.8139 31.5101V5.58779L32.0591 5.82638L20.304 22.9656C20.0962 23.1948 19.8522 23.3884 19.5817 23.5386C19.317 23.6929 19.0165 23.7751 18.7101 23.7772C18.3961 23.7734 18.0879 23.6914 17.8135 23.5386C17.5325 23.3932 17.2795 23.1992 17.0662 22.9656L5.46139 5.82638L6.50726 4.5855V31.5101C6.51258 31.7654 6.46717 32.0193 6.37367 32.257C6.28016 32.4947 6.14042 32.7115 5.96254 32.8948C5.78353 33.0831 5.56678 33.2314 5.32648 33.3302C5.08617 33.4289 4.82773 33.4758 4.56805 33.4678C4.31184 33.4776 4.05658 33.4315 3.82006 33.3325C3.58354 33.2335 3.37146 33.0841 3.19861 32.8948C2.84982 32.5191 2.66074 32.0226 2.67132 31.5101V1.95994C2.67187 1.70647 2.72282 1.45563 2.8212 1.22203C2.91958 0.988428 3.06342 0.776721 3.24437 0.599219C3.43371 0.402122 3.66242 0.247098 3.91564 0.144237C4.16885 0.0413756 4.44088 -0.00701981 4.71403 0.00220137Z" fill="url(#paint6_linear_72_244)"/>
<path d="M48.2998 5.02353L41.0953 23.5746C41.022 23.8209 40.8716 24.037 40.6661 24.1912C40.4822 24.3354 40.2559 24.415 40.0222 24.4179C39.6344 24.4179 39.3482 24.3089 39.1637 24.091C38.9795 23.8744 38.8813 23.5975 38.8881 23.3132C38.8692 23.1483 38.8901 22.9813 38.9491 22.8262L46.8901 2.3936C46.9683 2.12452 47.1358 1.89011 47.3651 1.72904C47.5778 1.58931 47.8318 1.52629 48.0852 1.55037C48.3436 1.54819 48.5961 1.6279 48.8064 1.77806C49.0193 1.92771 49.1758 2.14446 49.2509 2.3936L57.1603 22.6388C57.2205 22.8051 57.2518 22.9805 57.2529 23.1574C57.2599 23.3198 57.2342 23.4819 57.1773 23.6342C57.1204 23.7864 57.0335 23.9257 56.9217 24.0437C56.8099 24.1617 56.6755 24.256 56.5266 24.321C56.3776 24.3861 56.2171 24.4205 56.0545 24.4222C55.8109 24.423 55.5738 24.3434 55.3801 24.1956C55.1648 24.0287 55.0047 23.801 54.9204 23.5419L47.6255 4.98975L48.2998 5.02353ZM42.6282 18.2875L43.6708 15.7589H52.7764L53.2361 18.2875H42.6282Z" fill="url(#paint7_linear_72_244)"/>
<path d="M61.8973 33.9513C61.363 33.962 60.8451 33.767 60.4505 33.4066C60.2607 33.2446 60.1087 33.0431 60.005 32.8161C59.9013 32.5892 59.8485 32.3423 59.8502 32.0927V4.04494C59.8439 3.80633 59.8861 3.56892 59.9741 3.34704C60.0621 3.12515 60.1941 2.9234 60.3623 2.75395C60.5257 2.5839 60.7228 2.4497 60.9409 2.35986C61.159 2.27003 61.3935 2.22652 61.6293 2.23211H73.9084C75.5688 2.23211 77.0664 2.6174 78.4013 3.38801C79.723 4.1459 80.8205 5.24007 81.5825 6.55939C82.3676 7.90376 82.7606 9.45223 82.7613 11.2048C82.7705 12.4267 82.5283 13.6374 82.0499 14.7618C81.6001 15.8225 80.9436 16.783 80.1187 17.5873C79.2939 18.3916 78.3171 19.0236 77.2454 19.4465L76.2649 18.722C77.2515 18.9532 78.1769 19.3934 78.9787 20.013C79.7942 20.6483 80.4631 21.4521 80.9397 22.3694C81.443 23.3209 81.71 24.431 81.7405 25.6999C81.7993 26.8176 81.8719 27.7088 81.9584 28.3734C82.0448 29.0379 82.1791 29.5594 82.3614 29.9378C82.5239 30.2985 82.7862 30.6051 83.1175 30.8214C83.5163 31.071 83.8092 31.4589 83.9401 31.9108C84.0058 32.1336 84.0178 32.3688 83.9752 32.5972C83.9326 32.8255 83.8366 33.0406 83.6949 33.2247C83.5177 33.4968 83.2498 33.6975 82.9389 33.7912C82.6231 33.8951 82.2892 33.9322 81.9584 33.9001C81.6587 33.8796 81.3686 33.7865 81.1129 33.6289C80.5865 33.3133 80.1197 32.9077 79.7337 32.4305C79.2892 31.9025 78.9184 31.1398 78.6214 30.1426C78.3243 29.1454 78.1762 27.7862 78.1769 26.0648C78.1769 25.0981 78.0287 24.2974 77.7324 23.6626C77.4614 23.0609 77.0505 22.5328 76.534 22.1221C76.0352 21.7327 75.4586 21.4548 74.8432 21.3072C74.2168 21.1555 73.5746 21.0794 72.9301 21.0806H63.0085L63.5423 20.2646V32.0938C63.5548 32.5707 63.3972 33.0364 63.0979 33.4077C62.9537 33.5853 62.7702 33.7269 62.5618 33.8213C62.3534 33.9157 62.1259 33.9602 61.8973 33.9513ZM63.0085 17.8199H73.903C74.7805 17.7531 75.621 17.4388 76.327 16.9135C77.0831 16.3695 77.7059 15.6069 78.1954 14.6256C78.6849 13.6444 78.9308 12.5343 78.933 11.2952C78.933 9.69736 78.4362 8.36823 77.4426 7.30784C76.449 6.24744 75.1962 5.7187 73.684 5.7216H63.1872L63.5423 4.86094V18.6359L63.0085 17.8199Z" fill="url(#paint8_linear_72_244)"/>
<path d="M47.6227 29.8694C48.006 29.8694 48.3167 29.5587 48.3167 29.1754C48.3167 28.7921 48.006 28.4814 47.6227 28.4814C47.2394 28.4814 46.9287 28.7921 46.9287 29.1754C46.9287 29.5587 47.2394 29.8694 47.6227 29.8694Z" fill="url(#paint9_linear_72_244)"/>
<path d="M5.73695 56.2207C6.12022 56.2207 6.43092 55.91 6.43092 55.5267C6.43092 55.1435 6.12022 54.8328 5.73695 54.8328C5.35367 54.8328 5.04297 55.1435 5.04297 55.5267C5.04297 55.91 5.35367 56.2207 5.73695 56.2207Z" fill="url(#paint10_linear_72_244)"/>
<path d="M33.4762 56.2207C33.8595 56.2207 34.1702 55.91 34.1702 55.5267C34.1702 55.1435 33.8595 54.8328 33.4762 54.8328C33.0929 54.8328 32.7822 55.1435 32.7822 55.5267C32.7822 55.91 33.0929 56.2207 33.4762 56.2207Z" fill="url(#paint11_linear_72_244)"/>
<path d="M63.4332 56.2207C63.8165 56.2207 64.1272 55.91 64.1272 55.5267C64.1272 55.1435 63.8165 54.8328 63.4332 54.8328C63.05 54.8328 62.7393 55.1435 62.7393 55.5267C62.7393 55.91 63.05 56.2207 63.4332 56.2207Z" fill="url(#paint12_linear_72_244)"/>
<defs>
<linearGradient id="paint0_linear_72_244" x1="-0.000868237" y1="44.3861" x2="11.9449" y2="44.3861" gradientUnits="userSpaceOnUse">
<stop stop-color="#00739A"/>
<stop offset="0.65" stop-color="#00ADD4"/>
<stop offset="1" stop-color="#006D94"/>
</linearGradient>
<linearGradient id="paint1_linear_72_244" x1="14.1588" y1="47.6851" x2="26.9674" y2="47.6851" gradientUnits="userSpaceOnUse">
<stop stop-color="#00739A"/>
<stop offset="0.65" stop-color="#00ADD4"/>
<stop offset="1" stop-color="#006D94"/>
</linearGradient>
<linearGradient id="paint2_linear_72_244" x1="42.2516" y1="48.6621" x2="63.0198" y2="48.6621" gradientUnits="userSpaceOnUse">
<stop stop-color="#00739A"/>
<stop offset="0.65" stop-color="#00ADD4"/>
<stop offset="1" stop-color="#006D94"/>
</linearGradient>
<linearGradient id="paint3_linear_72_244" x1="29.7317" y1="44.9439" x2="38.6913" y2="44.9439" gradientUnits="userSpaceOnUse">
<stop stop-color="#00739A"/>
<stop offset="0.65" stop-color="#00ADD4"/>
<stop offset="1" stop-color="#006D94"/>
</linearGradient>
<linearGradient id="paint4_linear_72_244" x1="57.7782" y1="45.8483" x2="68.9734" y2="45.8483" gradientUnits="userSpaceOnUse">
<stop stop-color="#00739A"/>
<stop offset="0.65" stop-color="#00ADD4"/>
<stop offset="1" stop-color="#006D94"/>
</linearGradient>
<linearGradient id="paint5_linear_72_244" x1="70.0092" y1="45.8483" x2="83.8299" y2="45.8483" gradientUnits="userSpaceOnUse">
<stop stop-color="#00739A"/>
<stop offset="0.65" stop-color="#00ADD4"/>
<stop offset="1" stop-color="#006D94"/>
</linearGradient>
<linearGradient id="paint6_linear_72_244" x1="2.67132" y1="16.7339" x2="34.9974" y2="16.7339" gradientUnits="userSpaceOnUse">
<stop stop-color="#00739A"/>
<stop offset="0.65" stop-color="#00ADD4"/>
<stop offset="1" stop-color="#006D94"/>
</linearGradient>
<linearGradient id="paint7_linear_72_244" x1="38.8805" y1="12.983" x2="57.2529" y2="12.983" gradientUnits="userSpaceOnUse">
<stop stop-color="#00739A"/>
<stop offset="0.65" stop-color="#00ADD4"/>
<stop offset="1" stop-color="#006D94"/>
</linearGradient>
<linearGradient id="paint8_linear_72_244" x1="59.8502" y1="18.0923" x2="84.0022" y2="18.0923" gradientUnits="userSpaceOnUse">
<stop stop-color="#00739A"/>
<stop offset="0.65" stop-color="#00ADD4"/>
<stop offset="1" stop-color="#006D94"/>
</linearGradient>
<linearGradient id="paint9_linear_72_244" x1="46.9287" y1="29.1754" x2="48.3156" y2="29.1754" gradientUnits="userSpaceOnUse">
<stop stop-color="#00739A"/>
<stop offset="0.65" stop-color="#00ADD4"/>
<stop offset="1" stop-color="#006D94"/>
</linearGradient>
<linearGradient id="paint10_linear_72_244" x1="5.04406" y1="55.5267" x2="6.43092" y2="55.5267" gradientUnits="userSpaceOnUse">
<stop stop-color="#00739A"/>
<stop offset="0.65" stop-color="#00ADD4"/>
<stop offset="1" stop-color="#006D94"/>
</linearGradient>
<linearGradient id="paint11_linear_72_244" x1="32.7833" y1="55.5267" x2="34.1702" y2="55.5267" gradientUnits="userSpaceOnUse">
<stop stop-color="#00739A"/>
<stop offset="0.65" stop-color="#00ADD4"/>
<stop offset="1" stop-color="#006D94"/>
</linearGradient>
<linearGradient id="paint12_linear_72_244" x1="62.7403" y1="55.5267" x2="64.1272" y2="55.5267" gradientUnits="userSpaceOnUse">
<stop stop-color="#00739A"/>
<stop offset="0.65" stop-color="#00ADD4"/>
<stop offset="1" stop-color="#006D94"/>
</linearGradient>
</defs>
</svg>
