<svg width="26" height="30" viewBox="0 0 26 30" fill="none" xmlns="http://www.w3.org/2000/svg">
<path d="M8.58595 23.2395V24.3195C8.58595 25.4653 9.051 26.5641 9.87879 27.3743C10.7066 28.1844 11.8293 28.6396 13 28.6396C14.1707 28.6396 15.2934 28.1844 16.1212 27.3743C16.949 26.5641 17.4141 25.4653 17.4141 24.3195V23.2395M3.09639 11.3595C3.09456 10.0786 3.35178 8.81007 3.85323 7.62695C4.35468 6.44382 5.09044 5.36953 6.0181 4.466C6.94575 3.56247 8.04696 2.84756 9.25824 2.36249C10.4695 1.87743 11.7669 1.63179 13.0756 1.63974C18.5366 1.67948 22.9047 6.12194 22.9047 11.4815V12.4395C22.9047 17.2746 23.9383 20.0804 24.8487 21.6139C24.9468 21.7777 24.9989 21.964 25 22.1539C25.001 22.3438 24.9509 22.5306 24.8546 22.6955C24.7583 22.8603 24.6193 22.9975 24.4516 23.093C24.2839 23.1885 24.0935 23.2391 23.8994 23.2395H2.10055C1.9065 23.2391 1.71601 23.1885 1.5483 23.0929C1.38059 22.9974 1.24159 22.8603 1.14533 22.6954C1.04907 22.5304 0.998945 22.3436 1.00002 22.1537C1.00109 21.9638 1.05332 21.7775 1.15144 21.6136C2.06229 20.0801 3.09638 17.2744 3.09638 12.4395L3.09639 11.3595Z" stroke="#767C88" stroke-width="2" stroke-linecap="round" stroke-linejoin="round"/>
</svg>
