<svg width="14" height="15" viewBox="0 0 14 15" fill="none" xmlns="http://www.w3.org/2000/svg">
<path d="M6.89552 0.651611C3.10299 0.651611 0 3.7546 0 7.54714C0 11.3397 3.10299 14.4427 6.89552 14.4427C10.6881 14.4427 13.791 11.3397 13.791 7.54714C13.791 3.7546 10.6881 0.651611 6.89552 0.651611ZM6.89552 13.0636C3.86149 13.0636 1.3791 10.5812 1.3791 7.54714C1.3791 4.5131 3.86149 2.03072 6.89552 2.03072C9.92955 2.03072 12.4119 4.5131 12.4119 7.54714C12.4119 10.5812 9.92955 13.0636 6.89552 13.0636Z" fill="#006D94"/>
<path d="M7.58507 7.27121V5.47837C7.58507 5.06464 7.30925 4.78882 6.89552 4.78882C6.48178 4.78882 6.20596 5.06464 6.20596 5.47837V7.54703C6.20596 7.75389 6.27492 7.8918 6.41283 8.02971L8.48149 10.0984C8.6194 10.2363 8.82626 10.3052 8.96417 10.3052C9.10208 10.3052 9.30895 10.2363 9.44686 10.0984C9.72268 9.82255 9.72268 9.40882 9.44686 9.133L7.58507 7.27121Z" fill="#006D94"/>
</svg>
