<svg width="90" height="101" viewBox="0 0 90 101" fill="none" xmlns="http://www.w3.org/2000/svg">
<path d="M44.84 36.0823C41.9881 36.082 39.2001 36.9275 36.8288 38.5118C34.4574 40.0961 32.6091 42.348 31.5176 44.9828C30.4261 47.6176 30.1405 50.5168 30.6968 53.3139C31.2531 56.1111 32.6264 58.6804 34.643 60.697C36.6596 62.7136 39.2289 64.0869 42.0261 64.6432C44.8232 65.1995 47.7224 64.9139 50.3572 63.8224C52.992 62.7309 55.2439 60.8826 56.8282 58.5112C58.4125 56.1399 59.258 53.352 59.2577 50.5001C59.2574 46.6763 57.7383 43.0093 55.0345 40.3055C52.3307 37.6017 48.6637 36.0826 44.84 36.0823Z" fill="url(#paint0_linear_2623_104)"/>
<path d="M29.7454 62.9989C26.8258 59.4886 25.2292 55.0658 25.2334 50.5C25.2334 39.6887 34.0287 30.8935 44.84 30.8935C49.4055 30.8898 53.8279 32.4868 57.3377 35.4066L66.7623 25.9821C62.1259 15.4434 54.5454 6.4419 44.7843 0.425903C27.9203 10.8792 17.5748 30.2653 17.7751 51.0712C17.8202 57.9593 19.0858 64.7849 21.5131 71.2312L29.7454 62.9989Z" fill="url(#paint1_linear_2623_104)"/>
<path d="M59.9333 38.0034C62.8531 41.5127 64.4497 45.9349 64.4453 50.5C64.4453 61.3113 55.65 70.1065 44.84 70.1065C40.2742 70.1103 35.8516 68.5137 32.341 65.5945L23.0397 74.8959C30.4103 91.0049 43.1037 99.4588 44.8684 100.574C47.3573 98.9954 71.6252 82.7797 71.9037 51.0724C71.97 43.7838 70.7322 36.5421 68.2486 29.6893L59.9333 38.0034Z" fill="url(#paint2_linear_2623_104)"/>
<path d="M21.5464 71.2312C19.8784 72.8786 18.2097 74.5264 16.5402 76.1746C15.6734 75.3278 14.516 74.8439 13.3044 74.8219C12.0928 74.7998 10.9186 75.2413 10.0216 76.0561L0.690674 84.5005L8.66578 93.31L17.9944 84.8656C18.8 84.1378 19.3325 83.1563 19.5032 82.0842C19.674 81.012 19.4728 79.9137 18.933 78.9716L23.0385 74.9029C22.3569 73.7642 21.8533 72.528 21.5452 71.2371L21.5464 71.2312Z" fill="url(#paint3_linear_2623_104)"/>
<path d="M81.4255 7.75037L72.008 16.0964C71.1974 16.8177 70.6568 17.7936 70.4754 18.8634C70.294 19.9331 70.4826 21.0327 71.0101 21.9809L66.8619 26.0105C67.5313 27.1569 68.0221 28.3986 68.3173 29.6929L73.3757 24.8004C74.2334 25.6567 75.3855 26.1534 76.5969 26.1891C77.8083 26.2248 78.9877 25.7968 79.8942 24.9924L89.3117 16.6464L81.4255 7.75037Z" fill="url(#paint4_linear_2623_104)"/>
<defs>
<linearGradient id="paint0_linear_2623_104" x1="30.4198" y1="50.5012" x2="59.2577" y2="50.5012" gradientUnits="userSpaceOnUse">
<stop stop-color="#00739A"/>
<stop offset="0.65" stop-color="#00ADD4"/>
<stop offset="1" stop-color="#006D94"/>
</linearGradient>
<linearGradient id="paint1_linear_2623_104" x1="17.7727" y1="35.8286" x2="66.7623" y2="35.8286" gradientUnits="userSpaceOnUse">
<stop stop-color="#00739A"/>
<stop offset="0.65" stop-color="#00ADD4"/>
<stop offset="1" stop-color="#006D94"/>
</linearGradient>
<linearGradient id="paint2_linear_2623_104" x1="23.0397" y1="65.1311" x2="71.906" y2="65.1311" gradientUnits="userSpaceOnUse">
<stop stop-color="#00739A"/>
<stop offset="0.65" stop-color="#00ADD4"/>
<stop offset="1" stop-color="#006D94"/>
</linearGradient>
<linearGradient id="paint3_linear_2623_104" x1="0.691859" y1="82.2676" x2="23.0397" y2="82.2676" gradientUnits="userSpaceOnUse">
<stop stop-color="#00739A"/>
<stop offset="0.65" stop-color="#00ADD4"/>
<stop offset="1" stop-color="#006D94"/>
</linearGradient>
<linearGradient id="paint4_linear_2623_104" x1="66.8619" y1="18.7193" x2="89.3082" y2="18.7193" gradientUnits="userSpaceOnUse">
<stop stop-color="#00739A"/>
<stop offset="0.65" stop-color="#00ADD4"/>
<stop offset="1" stop-color="#006D94"/>
</linearGradient>
</defs>
</svg>
