<svg width="128" height="128" viewBox="0 0 128 128" fill="none" xmlns="http://www.w3.org/2000/svg">
<g id="Logo colorida">
<path id="Vector" d="M24.9706 74.086L19.8743 87.2096C19.8231 87.384 19.7166 87.537 19.5709 87.6457C19.4404 87.7476 19.2801 87.8038 19.1146 87.8057C18.8405 87.8057 18.6382 87.7295 18.5078 87.577C18.3776 87.4234 18.3084 87.2272 18.3135 87.0259C18.2998 86.9095 18.3144 86.7916 18.3561 86.6822L23.9739 72.2229C24.0277 72.0309 24.1462 71.8634 24.3093 71.7488C24.4597 71.6495 24.6396 71.6048 24.8189 71.622C25.0016 71.6203 25.1801 71.6767 25.3286 71.7832C25.4797 71.8883 25.5904 72.0417 25.6426 72.2182L31.2391 86.5352C31.281 86.6528 31.3026 86.7766 31.3031 86.9014C31.3092 87.0227 31.2892 87.1439 31.2444 87.2568C31.1997 87.3696 31.1311 87.4716 31.0435 87.5557C30.8868 87.708 30.6767 87.7931 30.458 87.7927C30.2868 87.7923 30.1204 87.7361 29.984 87.6327C29.8322 87.5155 29.7188 87.3559 29.658 87.174L24.4942 74.0635L24.9706 74.086ZM20.9588 83.4703L21.696 81.6807H28.1375L28.4622 83.4703H20.9588Z" fill="url(#paint0_linear_1966_59)"/>
<path id="Vector_2" d="M41.7766 72.7703C43.3481 72.7703 44.5586 73.227 45.408 74.1403C46.2574 75.0537 46.6817 76.3428 46.6809 78.0076C46.6895 78.8503 46.5063 79.684 46.1452 80.4455C45.8005 81.1741 45.257 81.7904 44.5772 82.2233C43.8882 82.6642 43.0439 82.9048 42.0444 82.9451L41.9911 82.1024C42.6456 82.1071 43.2958 82.2085 43.9206 82.4035C44.587 82.608 45.2095 82.9347 45.7564 83.367C46.3409 83.8353 46.8087 84.4329 47.1229 85.1128C47.4714 85.835 47.6456 86.7274 47.6456 87.7901C47.6456 88.9334 47.4757 89.8918 47.136 90.6654C46.8357 91.3838 46.3723 92.0225 45.7825 92.5309C45.2351 92.9948 44.5963 93.3384 43.9075 93.5394C43.2328 93.738 42.5332 93.8393 41.8299 93.8405H34.7828C34.637 93.8428 34.4925 93.812 34.3603 93.7504C34.2281 93.6888 34.1116 93.598 34.0195 93.4849C33.8129 93.242 33.7032 92.9314 33.7114 92.6126V73.9768C33.7014 73.662 33.8115 73.3552 34.0195 73.1187C34.1134 73.0084 34.2305 72.9201 34.3625 72.8603C34.4944 72.8005 34.6379 72.7706 34.7828 72.7726L41.7766 72.7703ZM41.4554 75.1477H35.6942L36.0154 74.6061V82.1L35.7215 81.7089H41.5087C41.8869 81.7135 42.262 81.6396 42.6102 81.4919C42.9584 81.3442 43.2722 81.1259 43.5318 80.8509C44.0952 80.2796 44.3765 79.4322 44.3757 78.3086C44.3757 77.3044 44.1169 76.5269 43.5994 75.9762C43.0818 75.4255 42.3672 75.1501 41.4554 75.1501V75.1477ZM41.6699 84.1172H35.8281L36.0154 83.9063V91.7605L35.8009 91.4962H41.7505C42.8045 91.4962 43.6661 91.1952 44.3354 90.5931C45.0046 89.991 45.3396 89.0579 45.3404 87.7937C45.3404 86.8115 45.1619 86.0542 44.8047 85.5217C44.477 85.0147 43.9926 84.6289 43.4252 84.423C42.8619 84.2216 42.2681 84.119 41.6699 84.1196V84.1172Z" fill="url(#paint1_linear_1966_59)"/>
<path id="Vector_3" d="M76.9055 89.5739C77.6224 90.6144 78.2293 91.7266 78.7165 92.8925C79.5698 94.9203 82.4154 96.9221 84.7514 96.5132C85.8418 96.3212 86.9381 95.5532 86.8634 95.0045C86.7745 94.3431 85.0738 94.6833 83.2427 93.7979C79.904 92.1813 80.32 88.5144 75.7962 84.9731C75.4785 84.723 75.2036 84.5322 75.0341 84.4113C75.5766 84.1098 76.0613 83.7146 76.4658 83.2439C76.9858 82.6389 77.3879 81.9419 77.651 81.1888C77.9417 80.3664 78.0869 79.4997 78.08 78.6276C78.08 77.3634 77.843 76.2489 77.3689 75.2842C76.9377 74.3713 76.2759 73.5865 75.4489 73.0074C74.6545 72.4568 73.7085 72.1668 72.7419 72.1778H65.3464C65.1986 72.1763 65.0525 72.2094 64.9198 72.2744C64.787 72.3395 64.6714 72.4346 64.5819 72.5523C64.3722 72.8161 64.263 73.1458 64.2738 73.4827V93.6676C64.2659 94.0187 64.3956 94.359 64.6353 94.6157C64.7438 94.7397 64.8778 94.8388 65.0282 94.9063C65.1785 94.9738 65.3416 95.0081 65.5064 95.0068C65.6505 95.0101 65.7929 94.9757 65.9197 94.9071C66.0465 94.8385 66.1532 94.7381 66.2294 94.6157C66.4147 94.335 66.5086 94.0038 66.4984 93.6676V85.7399H72.1517C72.5415 85.7393 72.9294 85.7944 73.3037 85.9034C73.6837 86.0218 74.0321 86.2243 74.323 86.496C74.4748 86.6351 74.6166 86.7848 74.7473 86.944C75.4098 87.7452 76.0652 88.3579 76.9055 89.5739ZM72.7419 83.392H66.4984V74.6821H72.608C73.5182 74.6821 74.2728 75.0629 74.8717 75.8246C75.4706 76.5863 75.7701 77.5435 75.7701 78.6963C75.7829 79.5169 75.6327 80.3319 75.328 81.0939C75.0325 81.8003 74.6572 82.349 74.2021 82.7402C73.7982 83.1088 73.2861 83.3374 72.7419 83.392Z" fill="url(#paint2_linear_1966_59)"/>
<path id="Vector_4" d="M51.5461 72.052H59.4868C59.6064 72.0502 59.7252 72.0723 59.8362 72.1171C59.9471 72.1619 60.0479 72.2284 60.1327 72.3128C60.2211 72.3982 60.2906 72.5012 60.3367 72.6151C60.3829 72.729 60.4046 72.8513 60.4006 72.9741C60.4054 73.0953 60.3839 73.2161 60.3377 73.3282C60.2915 73.4403 60.2215 73.541 60.1327 73.6236C59.9583 73.788 59.7264 73.8773 59.4868 73.8725H52.3034L52.5049 73.4707V79.45L52.2809 79.1904H58.483C58.6042 79.1886 58.7245 79.2113 58.8367 79.2571C58.9489 79.3029 59.0507 79.3709 59.136 79.457C59.2214 79.5431 59.2884 79.6455 59.3332 79.7582C59.378 79.8708 59.3996 79.9913 59.3967 80.1125C59.4014 80.2336 59.3799 80.3544 59.3337 80.4665C59.2875 80.5786 59.2176 80.6794 59.1289 80.762C58.9544 80.9261 58.7224 81.0151 58.483 81.0097H52.3484L52.5049 80.7975V86.919L52.371 86.7531H59.4821C59.6037 86.7518 59.7241 86.7764 59.8355 86.8253C59.9468 86.8741 60.0465 86.9461 60.128 87.0363C60.2984 87.2054 60.3948 87.4351 60.3958 87.6752C60.3999 87.798 60.3781 87.9203 60.332 88.0342C60.2859 88.1481 60.2164 88.2511 60.128 88.3365C60.0433 88.4211 59.9425 88.4878 59.8316 88.5326C59.7206 88.5774 59.6017 88.5994 59.4821 88.5972H51.5413C51.4209 88.5994 51.3014 88.575 51.1914 88.5259C51.0814 88.4767 50.9836 88.404 50.9049 88.3128C50.7348 88.1258 50.6431 87.8805 50.6489 87.6277V72.9978C50.6424 72.7485 50.7343 72.5066 50.9049 72.3246C50.986 72.2359 51.0852 72.1657 51.1958 72.1186C51.3065 72.0716 51.4259 72.0489 51.5461 72.052Z" fill="url(#paint3_linear_1966_59)"/>
<path id="Vector_5" d="M82.0563 74.8326C81.939 74.8361 81.8222 74.8159 81.7129 74.7734C81.6036 74.7308 81.5039 74.6667 81.4198 74.5849C81.2531 74.4088 81.1602 74.1756 81.1602 73.9331C81.1602 73.6906 81.2531 73.4573 81.4198 73.2812C81.5041 73.1996 81.6038 73.1357 81.7131 73.0932C81.8224 73.0506 81.939 73.0304 82.0563 73.0335H92.4278C92.6675 73.0288 92.8996 73.1177 93.0749 73.2812C93.1637 73.3641 93.2336 73.4651 93.2798 73.5774C93.326 73.6896 93.3475 73.8106 93.3428 73.9319C93.3502 74.0551 93.3299 74.1784 93.2836 74.2928C93.2373 74.4072 93.166 74.5099 93.0749 74.5932C92.8966 74.7506 92.6656 74.8352 92.4278 74.8303L82.0563 74.8326ZM87.2296 89.5811C87.1043 89.584 86.9798 89.5602 86.8644 89.5114C86.7489 89.4625 86.6452 89.3898 86.56 89.2978C86.384 89.1133 86.2881 88.8666 86.2933 88.6116V74.0054H88.1896V88.6116C88.1948 88.8666 88.0989 89.1133 87.9229 89.2978C87.834 89.3914 87.7262 89.465 87.6067 89.5139C87.4872 89.5627 87.3586 89.5856 87.2296 89.5811Z" fill="url(#paint4_linear_1966_59)"/>
<path id="Vector_6" d="M109.511 81.3097C109.522 82.456 109.333 83.5955 108.953 84.6768C108.605 85.668 108.075 86.5855 107.391 87.3826C106.734 88.1463 105.92 88.7592 105.005 89.1793C104.055 89.5998 103.027 89.817 101.988 89.817C100.949 89.817 99.9215 89.5998 98.9713 89.1793C98.062 88.7565 97.2537 88.1438 96.6009 87.3826C95.9167 86.5855 95.3869 85.668 95.0388 84.6768C94.2953 82.4864 94.2953 80.1118 95.0388 77.9213C95.3825 76.9324 95.9096 76.0172 96.5926 75.2238C97.266 74.455 98.096 73.8389 99.0268 73.4168C99.9576 72.9947 100.968 72.7764 101.99 72.7764C103.012 72.7764 104.022 72.9947 104.953 73.4168C105.884 73.8389 106.714 74.455 107.387 75.2238C108.073 76.0155 108.603 76.9295 108.949 77.9177C109.332 79.0071 109.523 80.155 109.511 81.3097ZM107.592 81.3097C107.592 80.0179 107.351 78.8753 106.867 77.8822C106.427 76.9404 105.744 76.1328 104.889 75.5426C104.033 74.968 103.021 74.6709 101.99 74.6916C100.956 74.6724 99.9417 74.9693 99.0815 75.5426C98.2239 76.1296 97.5416 76.9382 97.107 77.8822C96.6329 78.8753 96.3959 80.0179 96.3959 81.3097C96.3959 82.585 96.6329 83.7231 97.107 84.7242C97.5393 85.6729 98.2219 86.4858 99.0815 87.0756C99.9423 87.6494 100.958 87.9463 101.992 87.9266C103.022 87.9469 104.034 87.6498 104.889 87.0756C105.745 86.4821 106.427 85.6702 106.863 84.7242C107.345 83.7239 107.586 82.5858 107.586 81.3097H107.592Z" fill="url(#paint5_linear_1966_59)"/>
<path id="Vector_7" d="M23.437 31.4335C23.8036 31.4435 24.1637 31.532 24.493 31.6931C24.841 31.8435 25.1479 32.0752 25.3879 32.3687L39.7464 53.1947L37.8501 53.1426L52.3722 32.3687C52.8415 31.7121 53.4554 31.4004 54.2139 31.4335C54.7759 31.4621 55.3113 31.6821 55.731 32.057C55.9446 32.2438 56.1139 32.476 56.2265 32.7366C56.3391 32.9972 56.3921 33.2796 56.3816 33.5633V65.7103C56.3854 65.993 56.3293 66.2734 56.2172 66.533C56.1051 66.7926 55.9394 67.0256 55.731 67.2167C55.2847 67.618 54.7057 67.8401 54.1055 67.8401C53.5053 67.8401 52.9263 67.618 52.48 67.2167C52.2717 67.0255 52.1062 66.7925 51.9943 66.5329C51.8824 66.2733 51.8266 65.993 51.8305 65.7103V37.51L53.1852 37.7695L40.397 56.4149C40.171 56.6643 39.9056 56.8749 39.6113 57.0383C39.3233 57.2061 38.9964 57.2956 38.6631 57.2978C38.3215 57.2937 37.9862 57.2045 37.6877 57.0383C37.382 56.8801 37.1067 56.6691 36.8747 56.4149L24.2501 37.7695L25.3879 36.4196V65.7103C25.3936 65.9881 25.3442 66.2643 25.2425 66.5229C25.1408 66.7814 24.9888 67.0173 24.7953 67.2167C24.6005 67.4215 24.3647 67.5829 24.1033 67.6903C23.8419 67.7978 23.5607 67.8488 23.2782 67.8401C22.9995 67.8508 22.7218 67.8005 22.4645 67.6928C22.2072 67.5852 21.9765 67.4227 21.7884 67.2167C21.409 66.808 21.2033 66.2678 21.2148 65.7103V33.5633C21.2154 33.2876 21.2708 33.0147 21.3779 32.7606C21.4849 32.5064 21.6414 32.2761 21.8382 32.083C22.0442 31.8686 22.293 31.7 22.5685 31.5881C22.8439 31.4762 23.1399 31.4235 23.437 31.4335Z" fill="url(#paint6_linear_1966_59)"/>
<path id="Vector_8" d="M70.8527 36.8959L63.0151 57.0772C62.9354 57.3451 62.7717 57.5803 62.5481 57.748C62.3481 57.9049 62.1019 57.9915 61.8477 57.9946C61.4258 57.9946 61.1145 57.876 60.9138 57.639C60.7133 57.4033 60.6066 57.1021 60.6139 56.7928C60.5933 56.6134 60.6161 56.4317 60.6803 56.263L69.3191 34.0349C69.4041 33.7421 69.5864 33.4871 69.8358 33.3119C70.0673 33.1599 70.3436 33.0913 70.6193 33.1175C70.9004 33.1152 71.175 33.2019 71.4038 33.3652C71.6354 33.528 71.8057 33.7638 71.8874 34.0349L80.4919 56.0592C80.5573 56.2401 80.5914 56.4309 80.5926 56.6233C80.6002 56.8 80.5723 56.9764 80.5104 57.142C80.4485 57.3077 80.3539 57.4592 80.2323 57.5875C80.1107 57.7159 79.9645 57.8185 79.8024 57.8892C79.6403 57.96 79.4657 57.9974 79.2889 57.9993C79.0239 58.0002 78.766 57.9135 78.5553 57.7528C78.321 57.5713 78.1468 57.3235 78.0551 57.0417L70.1191 36.8592L70.8527 36.8959ZM64.6827 51.3255L65.8169 48.5747H75.7227L76.2228 51.3255H64.6827Z" fill="url(#paint7_linear_1966_59)"/>
<path id="Vector_9" d="M85.645 68.3663C85.0638 68.3779 84.5004 68.1657 84.0711 67.7737C83.8647 67.5975 83.6992 67.3782 83.5864 67.1313C83.4736 66.8844 83.4162 66.6158 83.4181 66.3444V35.8318C83.4113 35.5722 83.4571 35.3139 83.5528 35.0726C83.6486 34.8312 83.7922 34.6117 83.9751 34.4274C84.153 34.2424 84.3673 34.0964 84.6046 33.9986C84.8419 33.9009 85.0969 33.8536 85.3535 33.8596H98.7117C100.518 33.8596 102.147 34.2788 103.599 35.1171C105.037 35.9416 106.231 37.1319 107.06 38.5672C107.914 40.0297 108.342 41.7143 108.343 43.6208C108.353 44.9501 108.089 46.2673 107.569 47.4905C107.079 48.6443 106.365 49.6892 105.468 50.5642C104.57 51.4392 103.508 52.1267 102.342 52.5868L101.275 51.7986C102.349 52.0501 103.355 52.5291 104.228 53.2031C105.115 53.8943 105.842 54.7687 106.361 55.7666C106.908 56.8017 107.199 58.0094 107.232 59.3897C107.296 60.6057 107.375 61.5752 107.469 62.2982C107.563 63.0211 107.709 63.5884 107.908 64.0001C108.084 64.3925 108.37 64.7261 108.73 64.9613C109.164 65.2329 109.483 65.6548 109.625 66.1465C109.696 66.3889 109.71 66.6447 109.663 66.8931C109.617 67.1416 109.512 67.3755 109.358 67.5758C109.165 67.8719 108.874 68.0902 108.536 68.1921C108.192 68.3051 107.829 68.3455 107.469 68.3106C107.143 68.2883 106.827 68.187 106.549 68.0155C105.977 67.6722 105.469 67.2309 105.049 66.7118C104.565 66.1374 104.162 65.3078 103.839 64.2229C103.516 63.1381 103.354 61.6594 103.355 59.7868C103.355 58.7351 103.194 57.864 102.872 57.1734C102.577 56.5189 102.13 55.9443 101.568 55.4976C101.025 55.0739 100.398 54.7716 99.7286 54.6111C99.0472 54.446 98.3485 54.3632 97.6474 54.3645H86.8539L87.4347 53.4768V66.3456C87.4482 66.8643 87.2768 67.3709 86.9511 67.7749C86.7943 67.9681 86.5946 68.1222 86.3679 68.2248C86.1412 68.3275 85.8937 68.3759 85.645 68.3663ZM86.8539 50.8173H98.7058C99.6604 50.7446 100.575 50.4027 101.343 49.8312C102.165 49.2394 102.843 48.4098 103.375 47.3423C103.908 46.2749 104.175 45.0672 104.178 43.7192C104.178 41.9809 103.637 40.535 102.556 39.3814C101.476 38.2278 100.113 37.6526 98.4676 37.6558H87.0483L87.4347 36.7195V51.705L86.8539 50.8173Z" fill="url(#paint8_linear_1966_59)"/>
<path id="Vector_10" d="M70.1167 63.9255C70.5337 63.9255 70.8717 63.5874 70.8717 63.1705C70.8717 62.7535 70.5337 62.4155 70.1167 62.4155C69.6998 62.4155 69.3618 62.7535 69.3618 63.1705C69.3618 63.5874 69.6998 63.9255 70.1167 63.9255Z" fill="url(#paint9_linear_1966_59)"/>
<path id="Vector_11" d="M24.5499 92.5927C24.9669 92.5927 25.3049 92.2547 25.3049 91.8377C25.3049 91.4208 24.9669 91.0828 24.5499 91.0828C24.133 91.0828 23.795 91.4208 23.795 91.8377C23.795 92.2547 24.133 92.5927 24.5499 92.5927Z" fill="url(#paint10_linear_1966_59)"/>
<path id="Vector_12" d="M54.7259 92.5927C55.1429 92.5927 55.4809 92.2547 55.4809 91.8377C55.4809 91.4208 55.1429 91.0828 54.7259 91.0828C54.309 91.0828 53.9709 91.4208 53.9709 91.8377C53.9709 92.2547 54.309 92.5927 54.7259 92.5927Z" fill="url(#paint11_linear_1966_59)"/>
<path id="Vector_13" d="M87.3161 92.5927C87.7331 92.5927 88.0711 92.2547 88.0711 91.8377C88.0711 91.4208 87.7331 91.0828 87.3161 91.0828C86.8992 91.0828 86.5612 91.4208 86.5612 91.8377C86.5612 92.2547 86.8992 92.5927 87.3161 92.5927Z" fill="url(#paint12_linear_1966_59)"/>
</g>
<defs>
<linearGradient id="paint0_linear_1966_59" x1="18.3075" y1="79.718" x2="31.3031" y2="79.718" gradientUnits="userSpaceOnUse">
<stop stop-color="#00739A"/>
<stop offset="0.65" stop-color="#00ADD4"/>
<stop offset="1" stop-color="#006D94"/>
</linearGradient>
<linearGradient id="paint1_linear_1966_59" x1="33.7114" y1="83.3066" x2="47.6456" y2="83.3066" gradientUnits="userSpaceOnUse">
<stop stop-color="#00739A"/>
<stop offset="0.65" stop-color="#00ADD4"/>
<stop offset="1" stop-color="#006D94"/>
</linearGradient>
<linearGradient id="paint2_linear_1966_59" x1="64.2738" y1="84.3698" x2="86.867" y2="84.3698" gradientUnits="userSpaceOnUse">
<stop stop-color="#00739A"/>
<stop offset="0.65" stop-color="#00ADD4"/>
<stop offset="1" stop-color="#006D94"/>
</linearGradient>
<linearGradient id="paint3_linear_1966_59" x1="50.6536" y1="80.3246" x2="60.4006" y2="80.3246" gradientUnits="userSpaceOnUse">
<stop stop-color="#00739A"/>
<stop offset="0.65" stop-color="#00ADD4"/>
<stop offset="1" stop-color="#006D94"/>
</linearGradient>
<linearGradient id="paint4_linear_1966_59" x1="81.1638" y1="81.3085" x2="93.3428" y2="81.3085" gradientUnits="userSpaceOnUse">
<stop stop-color="#00739A"/>
<stop offset="0.65" stop-color="#00ADD4"/>
<stop offset="1" stop-color="#006D94"/>
</linearGradient>
<linearGradient id="paint5_linear_1966_59" x1="94.4699" y1="81.3085" x2="109.505" y2="81.3085" gradientUnits="userSpaceOnUse">
<stop stop-color="#00739A"/>
<stop offset="0.65" stop-color="#00ADD4"/>
<stop offset="1" stop-color="#006D94"/>
</linearGradient>
<linearGradient id="paint6_linear_1966_59" x1="21.2148" y1="49.6356" x2="56.3816" y2="49.6356" gradientUnits="userSpaceOnUse">
<stop stop-color="#00739A"/>
<stop offset="0.65" stop-color="#00ADD4"/>
<stop offset="1" stop-color="#006D94"/>
</linearGradient>
<linearGradient id="paint7_linear_1966_59" x1="60.6056" y1="45.5549" x2="80.5926" y2="45.5549" gradientUnits="userSpaceOnUse">
<stop stop-color="#00739A"/>
<stop offset="0.65" stop-color="#00ADD4"/>
<stop offset="1" stop-color="#006D94"/>
</linearGradient>
<linearGradient id="paint8_linear_1966_59" x1="83.4181" y1="51.1136" x2="109.692" y2="51.1136" gradientUnits="userSpaceOnUse">
<stop stop-color="#00739A"/>
<stop offset="0.65" stop-color="#00ADD4"/>
<stop offset="1" stop-color="#006D94"/>
</linearGradient>
<linearGradient id="paint9_linear_1966_59" x1="69.3618" y1="63.1705" x2="70.8705" y2="63.1705" gradientUnits="userSpaceOnUse">
<stop stop-color="#00739A"/>
<stop offset="0.65" stop-color="#00ADD4"/>
<stop offset="1" stop-color="#006D94"/>
</linearGradient>
<linearGradient id="paint10_linear_1966_59" x1="23.7962" y1="91.8377" x2="25.3049" y2="91.8377" gradientUnits="userSpaceOnUse">
<stop stop-color="#00739A"/>
<stop offset="0.65" stop-color="#00ADD4"/>
<stop offset="1" stop-color="#006D94"/>
</linearGradient>
<linearGradient id="paint11_linear_1966_59" x1="53.9721" y1="91.8377" x2="55.4809" y2="91.8377" gradientUnits="userSpaceOnUse">
<stop stop-color="#00739A"/>
<stop offset="0.65" stop-color="#00ADD4"/>
<stop offset="1" stop-color="#006D94"/>
</linearGradient>
<linearGradient id="paint12_linear_1966_59" x1="86.5623" y1="91.8377" x2="88.0711" y2="91.8377" gradientUnits="userSpaceOnUse">
<stop stop-color="#00739A"/>
<stop offset="0.65" stop-color="#00ADD4"/>
<stop offset="1" stop-color="#006D94"/>
</linearGradient>
</defs>
</svg>
