<svg width="56" height="65" viewBox="0 0 56 65" fill="none" xmlns="http://www.w3.org/2000/svg">
<g id="Vector">
<path d="M27.8981 22.8302C26.096 22.8301 24.3343 23.3704 22.8358 24.3828C21.3374 25.3953 20.1694 26.8344 19.4797 28.5181C18.79 30.2019 18.6095 32.0547 18.961 33.8422C19.3126 35.6297 20.1804 37.2716 21.4547 38.5603C22.729 39.849 24.3525 40.7267 26.12 41.0822C27.8875 41.4377 29.7196 41.2551 31.3845 40.5576C33.0494 39.8601 34.4724 38.679 35.4736 37.1635C36.4747 35.6481 37.0089 33.8665 37.0088 32.0439C37.0086 29.6004 36.0487 27.2569 34.3401 25.5291C32.6316 23.8012 30.3144 22.8304 27.8981 22.8302Z" fill="white"/>
<path d="M18.3599 40.0314C16.5149 37.7882 15.506 34.9617 15.5087 32.0439C15.5087 25.135 21.0665 19.5143 27.8981 19.5143C30.7831 19.512 33.5777 20.5326 35.7955 22.3985L41.751 16.3757C38.8212 9.64092 34.0311 3.88849 27.8629 0.0439453C17.2065 6.72418 10.6692 19.1129 10.7957 32.409C10.8243 36.8109 11.624 41.1727 13.1578 45.2923L18.3599 40.0314Z" fill="white"/>
<path d="M37.4357 24.058C39.2807 26.3006 40.2896 29.1266 40.2868 32.0439C40.2868 38.9529 34.7291 44.5736 27.8981 44.5736C25.013 44.576 22.2183 43.5557 20 41.6901L14.1224 47.6342C18.78 57.9287 26.801 63.3312 27.9161 64.0439C29.4889 63.0351 44.8238 52.6724 44.9998 32.4098C45.0417 27.7519 44.2595 23.1241 42.6901 18.7448L37.4357 24.058Z" fill="white"/>
<path d="M13.1788 45.2923C12.1248 46.3451 11.0703 47.3981 10.0154 48.4514C9.46765 47.9102 8.73627 47.601 7.97067 47.5869C7.20508 47.5729 6.46306 47.855 5.89627 48.3757L0 53.7721L5.03951 59.4019L10.9343 54.0054C11.4434 53.5403 11.7798 52.9131 11.8877 52.2279C11.9956 51.5428 11.8685 50.8409 11.5274 50.2389L14.1217 47.6387C13.6909 46.9111 13.3727 46.1211 13.1781 45.2961L13.1788 45.2923Z" fill="white"/>
<path d="M51.0167 4.72466L45.0657 10.0582C44.5535 10.5192 44.2119 11.1428 44.0973 11.8265C43.9826 12.5101 44.1018 13.2128 44.4351 13.8187L41.8139 16.3939C42.2369 17.1265 42.547 17.92 42.7336 18.7471L45.93 15.6206C46.4719 16.1678 47.2 16.4852 47.9655 16.508C48.731 16.5308 49.4762 16.2573 50.0491 15.7433L56 10.4097L51.0167 4.72466Z" fill="white"/>
</g>
</svg>
