<svg id="Camada_1" data-name="Camada 1" xmlns="http://www.w3.org/2000/svg" xmlns:xlink="http://www.w3.org/1999/xlink" viewBox="0 0 1080 1080"><defs><style>.cls-1{fill:#fff;stroke:url(#Gradiente_sem_nome_57);}.cls-1,.cls-10,.cls-11,.cls-12,.cls-13,.cls-14,.cls-2,.cls-3,.cls-4,.cls-5,.cls-6,.cls-7,.cls-8,.cls-9{stroke-miterlimit:10;}.cls-2{fill:url(#Gradiente_sem_nome_69);stroke:url(#Gradiente_sem_nome_80);}.cls-3{fill:url(#Gradiente_sem_nome_69-2);stroke:url(#Gradiente_sem_nome_80-2);}.cls-4{fill:url(#Gradiente_sem_nome_69-3);stroke:url(#Gradiente_sem_nome_80-3);}.cls-5{fill:url(#Gradiente_sem_nome_69-4);stroke:url(#Gradiente_sem_nome_80-4);}.cls-6{fill:url(#Gradiente_sem_nome_69-5);stroke:url(#Gradiente_sem_nome_80-5);}.cls-7{fill:url(#Gradiente_sem_nome_69-6);stroke:url(#Gradiente_sem_nome_80-6);}.cls-8{fill:url(#Gradiente_sem_nome_69-7);stroke:url(#Gradiente_sem_nome_80-7);}.cls-9{fill:url(#Gradiente_sem_nome_69-8);stroke:url(#Gradiente_sem_nome_80-8);}.cls-10{fill:url(#Gradiente_sem_nome_69-9);stroke:url(#Gradiente_sem_nome_80-9);}.cls-11{fill:url(#Gradiente_sem_nome_69-10);stroke:url(#Gradiente_sem_nome_80-10);}.cls-12{fill:url(#Gradiente_sem_nome_69-11);stroke:url(#Gradiente_sem_nome_80-11);}.cls-13{fill:url(#Gradiente_sem_nome_69-12);stroke:url(#Gradiente_sem_nome_80-12);}.cls-14{fill:url(#Gradiente_sem_nome_69-13);stroke:url(#Gradiente_sem_nome_80-13);}</style><linearGradient id="Gradiente_sem_nome_57" x1="-370" y1="540" x2="1450" y2="540" gradientUnits="userSpaceOnUse"><stop offset="0" stop-color="#baddbc"/><stop offset="0" stop-color="#f0e1a1"/><stop offset="0" stop-color="#fae29c"/><stop offset="0.42" stop-color="#e28c53"/><stop offset="0.54" stop-color="#e39057"/><stop offset="0.67" stop-color="#e79d61"/><stop offset="0.79" stop-color="#ecb273"/><stop offset="0.92" stop-color="#f5cf8b"/><stop offset="0.99" stop-color="#fae29c"/></linearGradient><linearGradient id="Gradiente_sem_nome_69" x1="231.88" y1="768.14" x2="225.52" y2="779.17" gradientUnits="userSpaceOnUse"><stop offset="0" stop-color="#baddbc"/><stop offset="0" stop-color="#f0e1a1"/><stop offset="0" stop-color="#65c0c3"/><stop offset="0.19" stop-color="#69c2c5"/><stop offset="0.4" stop-color="#76c7ca"/><stop offset="0.47" stop-color="#7ccacc"/><stop offset="0.99" stop-color="#e3c53f"/></linearGradient><linearGradient id="Gradiente_sem_nome_80" x1="232.13" y1="767.71" x2="225.27" y2="779.6" gradientUnits="userSpaceOnUse"><stop offset="0" stop-color="#baddbc"/><stop offset="0" stop-color="#f0e1a1"/><stop offset="0" stop-color="#00a99d"/><stop offset="0.09" stop-color="#04aa9f"/><stop offset="0.18" stop-color="#11ada3"/><stop offset="0.28" stop-color="#26b3ab"/><stop offset="0.38" stop-color="#43bbb6"/><stop offset="0.47" stop-color="#68c5c4"/><stop offset="0.52" stop-color="#7ccacc"/><stop offset="1" stop-color="#f3b80c"/></linearGradient><linearGradient id="Gradiente_sem_nome_69-2" x1="517.88" y1="793.14" x2="511.52" y2="804.17" xlink:href="#Gradiente_sem_nome_69"/><linearGradient id="Gradiente_sem_nome_80-2" x1="518.13" y1="792.71" x2="511.27" y2="804.6" xlink:href="#Gradiente_sem_nome_80"/><linearGradient id="Gradiente_sem_nome_69-3" x1="721.88" y1="768.14" x2="715.52" y2="779.17" xlink:href="#Gradiente_sem_nome_69"/><linearGradient id="Gradiente_sem_nome_80-3" x1="722.13" y1="767.71" x2="715.27" y2="779.6" xlink:href="#Gradiente_sem_nome_80"/><linearGradient id="Gradiente_sem_nome_69-4" x1="586.88" y1="522.14" x2="580.52" y2="533.17" xlink:href="#Gradiente_sem_nome_69"/><linearGradient id="Gradiente_sem_nome_80-4" x1="587.13" y1="521.71" x2="580.27" y2="533.6" xlink:href="#Gradiente_sem_nome_80"/><linearGradient id="Gradiente_sem_nome_69-5" x1="415.11" y1="255.12" x2="214.44" y2="602.68" xlink:href="#Gradiente_sem_nome_69"/><linearGradient id="Gradiente_sem_nome_80-5" x1="415.36" y1="254.68" x2="214.19" y2="603.11" xlink:href="#Gradiente_sem_nome_80"/><linearGradient id="Gradiente_sem_nome_69-6" x1="656.86" y1="329.85" x2="545.8" y2="522.2" xlink:href="#Gradiente_sem_nome_69"/><linearGradient id="Gradiente_sem_nome_80-6" x1="657.11" y1="329.42" x2="545.55" y2="522.63" xlink:href="#Gradiente_sem_nome_80"/><linearGradient id="Gradiente_sem_nome_69-7" x1="875.64" y1="314.14" x2="714.91" y2="592.54" xlink:href="#Gradiente_sem_nome_69"/><linearGradient id="Gradiente_sem_nome_80-7" x1="875.89" y1="313.71" x2="714.66" y2="592.97" xlink:href="#Gradiente_sem_nome_80"/><linearGradient id="Gradiente_sem_nome_69-8" x1="257.73" y1="641.95" x2="201.69" y2="739" xlink:href="#Gradiente_sem_nome_69"/><linearGradient id="Gradiente_sem_nome_80-8" x1="257.98" y1="641.51" x2="201.44" y2="739.44" xlink:href="#Gradiente_sem_nome_80"/><linearGradient id="Gradiente_sem_nome_69-9" x1="389.06" y1="628.82" x2="318.21" y2="751.53" xlink:href="#Gradiente_sem_nome_69"/><linearGradient id="Gradiente_sem_nome_80-9" x1="389.31" y1="628.39" x2="317.96" y2="751.97" xlink:href="#Gradiente_sem_nome_80"/><linearGradient id="Gradiente_sem_nome_69-10" x1="570.8" y1="610.64" x2="485.72" y2="758.02" xlink:href="#Gradiente_sem_nome_69"/><linearGradient id="Gradiente_sem_nome_80-10" x1="571.05" y1="610.21" x2="485.47" y2="758.45" xlink:href="#Gradiente_sem_nome_80"/><linearGradient id="Gradiente_sem_nome_69-11" x1="661.17" y1="635.01" x2="599.4" y2="742.01" xlink:href="#Gradiente_sem_nome_69"/><linearGradient id="Gradiente_sem_nome_80-11" x1="661.42" y1="634.58" x2="599.15" y2="742.44" xlink:href="#Gradiente_sem_nome_80"/><linearGradient id="Gradiente_sem_nome_69-12" x1="888.3" y1="644.54" x2="811.87" y2="776.92" xlink:href="#Gradiente_sem_nome_69"/><linearGradient id="Gradiente_sem_nome_80-12" x1="888.55" y1="644.11" x2="811.62" y2="777.36" xlink:href="#Gradiente_sem_nome_80"/><linearGradient id="Gradiente_sem_nome_69-13" x1="766.95" y1="650.54" x2="696.84" y2="771.97" xlink:href="#Gradiente_sem_nome_69"/><linearGradient id="Gradiente_sem_nome_80-13" x1="767.2" y1="650.11" x2="696.59" y2="772.41" xlink:href="#Gradiente_sem_nome_80"/></defs><rect class="cls-1" x="-369.5" y="-338.5" width="1819" height="1757"/><circle class="cls-2" cx="228.7" cy="773.65" r="6.37"/><circle class="cls-3" cx="514.7" cy="798.65" r="6.37"/><circle class="cls-4" cx="718.7" cy="773.65" r="6.37"/><circle class="cls-5" cx="583.7" cy="527.65" r="6.37"/><path class="cls-6" d="M463.27,564.21V293a16.09,16.09,0,0,0-5.48-12.71A20.79,20.79,0,0,0,445,275q-9.6-.44-15.55,7.89l-114.62,164-113.06-164a19.84,19.84,0,0,0-7.54-5.7A21.65,21.65,0,0,0,185.3,275a17.87,17.87,0,0,0-13.49,5.48A17.57,17.57,0,0,0,166.56,293V564.21a18.17,18.17,0,0,0,4.8,12.71,16.2,16.2,0,0,0,12.57,5.26,16.93,16.93,0,0,0,12.8-5.26,17.72,17.72,0,0,0,5-12.71V342.64l96.93,143.14a24.47,24.47,0,0,0,6.85,5.25,17.31,17.31,0,0,0,8.23,2.2,16,16,0,0,0,8-2.2,25.68,25.68,0,0,0,6.63-5.25l96.47-140.66V564.21a16.94,16.94,0,0,0,5.49,12.71,20.51,20.51,0,0,0,27.43,0A16.93,16.93,0,0,0,463.27,564.21Z"/><path class="cls-7" d="M666.71,482.74,594.1,297a10.68,10.68,0,0,0-4.08-5.66,11.28,11.28,0,0,0-6.61-2.08,10.23,10.23,0,0,0-6.62,1.64,11.28,11.28,0,0,0-4.36,6.1L499.54,484.52A9.52,9.52,0,0,0,499,489a10.64,10.64,0,0,0,2.54,7.14q2.52,3,7.88,3a9.74,9.74,0,0,0,5.91-2.09,10.89,10.89,0,0,0,3.94-5.65l18.84-48.53h89.1l19,48.23a12.41,12.41,0,0,0,4.23,5.95,10.08,10.08,0,0,0,6.19,2.09,10.87,10.87,0,0,0,7.59-3.13,11,11,0,0,0,3.38-8.48A14.22,14.22,0,0,0,666.71,482.74Zm-119.6-63.12,35.25-90.76,35.7,90.76Z"/><path class="cls-8" d="M696.91,581.63a19.09,19.09,0,0,0,13.27,5,13.52,13.52,0,0,0,11-5,18.47,18.47,0,0,0,4.09-12.07V468.5h86.16A74.65,74.65,0,0,1,829,470.57a40.78,40.78,0,0,1,15.52,7.49,38,38,0,0,1,11,14.14q4.08,8.73,4.08,22.05,0,23.7,4.09,37.43t10.21,21a47.83,47.83,0,0,0,12.66,11,17,17,0,0,0,7.75,2.5,22,22,0,0,0,9-1,12.66,12.66,0,0,0,6.95-5.2,13.48,13.48,0,0,0,2.24-12.06,17.56,17.56,0,0,0-7.55-10,19,19,0,0,1-6.94-8.11q-2.46-5.2-3.68-14.35t-2-24.54q-.4-17.48-7.35-30.57a66,66,0,0,0-18-21.63,64.05,64.05,0,0,0-11.52-7.11,79.5,79.5,0,0,0,39.7-41.14,81.77,81.77,0,0,0,6.53-32.64q0-24.12-10.82-42.64a79.14,79.14,0,0,0-29.19-29.11q-18.39-10.6-41.25-10.61H707.73a15.64,15.64,0,0,0-11.64,4.79,16.26,16.26,0,0,0-4.7,11.85V569.56A15.69,15.69,0,0,0,696.91,581.63Zm156-239.57q13.68,14.56,13.68,36.6,0,17.05-6.74,30.57t-17.15,21a42.77,42.77,0,0,1-22.26,8.32H725.29v-111h93.1Q839.21,327.5,852.9,342.06Z"/><path class="cls-9" d="M256.71,693.79a43.26,43.26,0,0,0-11.14-6,125.45,125.45,0,0,0-14.11-4.28,100.2,100.2,0,0,1-12.79-4.29,25.24,25.24,0,0,1-9.2-6.24,15.39,15.39,0,0,1-.38-18.86,19.5,19.5,0,0,1,8.49-5.93,36.74,36.74,0,0,1,22.3-.7,40.15,40.15,0,0,1,8.88,3.74,27.26,27.26,0,0,1,6.71,5.3,4.53,4.53,0,0,0,3.12,1.25,6.12,6.12,0,0,0,4.44-1.95,6,6,0,0,0,2-4.29q0-2.81-3.12-5.76a34.9,34.9,0,0,0-13.64-8.58,51.86,51.86,0,0,0-18-3.12,46.56,46.56,0,0,0-19,3.67,30.38,30.38,0,0,0-12.94,10.36,26.56,26.56,0,0,0-4.68,15.59A28.9,28.9,0,0,0,196,675.94a25.26,25.26,0,0,0,6.78,8.89A39.7,39.7,0,0,0,213.14,691a87,87,0,0,0,13.17,4.21,79.55,79.55,0,0,1,14.27,4.6,27,27,0,0,1,9.66,6.78,15.81,15.81,0,0,1,3.67,10.29,13.58,13.58,0,0,1-3.28,9,21.5,21.5,0,0,1-8.8,6.08,33.48,33.48,0,0,1-12.4,2.18,39.31,39.31,0,0,1-16-3.11,44.34,44.34,0,0,1-13.17-9,5.4,5.4,0,0,0-3.9-1.71,5.77,5.77,0,0,0-4.44,2,6.37,6.37,0,0,0-1.8,4.44,6.13,6.13,0,0,0,.7,2.88,9.84,9.84,0,0,0,1.8,2.42,54.18,54.18,0,0,0,16.83,10.92,55.36,55.36,0,0,0,20.27,3.42,46.22,46.22,0,0,0,18.79-4,32.52,32.52,0,0,0,13.17-10.52,25.51,25.51,0,0,0,4.84-15.28A32.17,32.17,0,0,0,264,702.92,24.12,24.12,0,0,0,256.71,693.79Z"/><path class="cls-10" d="M388.33,628.41a66.11,66.11,0,0,0-34.58-9.2,66.75,66.75,0,0,0-59.3,34.45q-9.06,16-9.07,36.55t9.07,36.55a66.8,66.8,0,0,0,59.3,34.45A66,66,0,0,0,388.33,752a67.54,67.54,0,0,0,24.46-25.24q9.06-16,9.07-36.55t-9.07-36.55A67.71,67.71,0,0,0,388.33,628.41Zm6.31,88.36A47.7,47.7,0,0,1,377.81,735a46.49,46.49,0,0,1-48.12,0,48.73,48.73,0,0,1-17-18.27q-6.32-11.57-6.31-26.56,0-15.26,6.31-26.82a47.72,47.72,0,0,1,17-18.15,47.34,47.34,0,0,1,48.12,0,46.73,46.73,0,0,1,16.83,18.15q6.18,11.57,6.18,26.82Q400.82,705.2,394.64,716.77Z"/><path class="cls-11" d="M573.93,740.91a11,11,0,0,0-6.6,1.18,68.57,68.57,0,0,1-17,7.55,66.59,66.59,0,0,1-18.63,2.59,67.49,67.49,0,0,1-24.87-4.48,57.75,57.75,0,0,1-20.05-13.08,61.85,61.85,0,0,1-13.55-20.87,73.61,73.61,0,0,1-5-27.83A72.25,72.25,0,0,1,473,659.33a61.57,61.57,0,0,1,13.2-20.75A59.76,59.76,0,0,1,506.26,625a68.46,68.46,0,0,1,44.33-2.12,72.83,72.83,0,0,1,16.74,7.43,12.54,12.54,0,0,0,6.6,1.41,7.06,7.06,0,0,0,5.43-3.3,9.84,9.84,0,0,0,2.23-7.78,8.18,8.18,0,0,0-4.59-6.37,80.47,80.47,0,0,0-21.34-9.43,87.56,87.56,0,0,0-23.94-3.3,84.38,84.38,0,0,0-32.89,6.36,83.2,83.2,0,0,0-26.65,17.69,80.64,80.64,0,0,0-17.8,26.64A87.16,87.16,0,0,0,448,686q0,19.57,6.72,35.26A79.6,79.6,0,0,0,499.66,765a87.29,87.29,0,0,0,32.06,5.9,82.25,82.25,0,0,0,16.39-1.65,94.4,94.4,0,0,0,15.68-4.6,88.56,88.56,0,0,0,13.44-6.48,7.87,7.87,0,0,0,4.48-6,10,10,0,0,0-2.12-7.91A8.9,8.9,0,0,0,573.93,740.91Z"/><path class="cls-12" d="M630.34,618.78a9.44,9.44,0,0,0-7.14,3.05,10.64,10.64,0,0,0-2.88,7.58v118a11.35,11.35,0,0,0,2.76,7.7,9.1,9.1,0,0,0,7.26,3.19,9.22,9.22,0,0,0,7.14-3.19,11.07,11.07,0,0,0,2.88-7.7v-118a10.64,10.64,0,0,0-2.88-7.58A9.44,9.44,0,0,0,630.34,618.78Z"/><path class="cls-13" d="M910.48,762.1a10,10,0,0,0-7.17-2.85H828.43V615.66a9.36,9.36,0,0,0-3-7,10,10,0,0,0-7.17-2.84,10.31,10.31,0,0,0-7.41,2.84,9.36,9.36,0,0,0-3,7v153a9.94,9.94,0,0,0,2.85,7.16,9.34,9.34,0,0,0,7,3h85.51a10.25,10.25,0,0,0,7.17-2.72,9,9,0,0,0,3-6.92A9.33,9.33,0,0,0,910.48,762.1Z"/><path class="cls-14" d="M727.11,629.54a6.59,6.59,0,0,0-2.69-3.53,7.69,7.69,0,0,0-4.37-1.3,7,7,0,0,0-4.37,1,7.08,7.08,0,0,0-2.88,3.81L664.66,746.63a5.69,5.69,0,0,0-.37,2.79,6.47,6.47,0,0,0,1.67,4.46c1.12,1.24,2.85,1.86,5.21,1.86a7,7,0,0,0,6.5-4.84l12.45-30.29H749l12.53,30.11a7.76,7.76,0,0,0,2.78,3.72,7,7,0,0,0,4.09,1.3,7.4,7.4,0,0,0,5-2,6.65,6.65,0,0,0,2.23-5.29,8.31,8.31,0,0,0-.56-3Zm-31,76.57,23.28-56.67,23.58,56.67Z"/></svg>