<svg width="294" height="259" viewBox="0 0 294 259" fill="none" xmlns="http://www.w3.org/2000/svg">
<g opacity="0.3">
<path d="M146.633 100.216C140.082 100.216 133.679 101.925 128.232 105.127C122.785 108.329 118.54 112.88 116.033 118.206C113.526 123.531 112.87 129.391 114.147 135.045C115.425 140.698 118.58 145.892 123.211 149.968C127.843 154.044 133.745 156.819 140.169 157.944C146.594 159.068 153.253 158.491 159.305 156.285C165.357 154.079 170.529 150.343 174.168 145.55C177.807 140.757 179.749 135.122 179.748 129.357C179.748 121.629 176.258 114.217 170.048 108.752C163.838 103.287 155.415 100.217 146.633 100.216Z" fill="white"/>
<path d="M111.962 154.621C105.256 147.525 101.589 138.586 101.599 129.358C101.599 107.506 121.8 89.7286 146.633 89.7286C157.119 89.7212 167.277 92.9491 175.338 98.8507L196.985 79.8016C186.336 58.5007 168.925 40.3068 146.505 28.1472C107.77 49.2756 84.0078 88.459 84.4679 130.512C84.5716 144.434 87.4785 158.23 93.0537 171.26L111.962 154.621Z" fill="white"/>
<path d="M181.3 104.099C188.006 111.192 191.674 120.13 191.663 129.357C191.663 151.209 171.462 168.986 146.632 168.986C136.146 168.994 125.987 165.767 117.924 159.867L96.5599 178.667C113.489 211.226 142.644 228.314 146.698 230.568C152.414 227.377 208.155 194.602 208.794 130.514C208.947 115.783 206.104 101.146 200.399 87.2947L181.3 104.099Z" fill="white"/>
<path d="M93.13 171.26C89.2989 174.59 85.466 177.92 81.6313 181.251C79.6405 179.54 76.9821 178.562 74.1992 178.517C71.4164 178.473 68.7193 179.365 66.6591 181.012L45.2271 198.08L63.5449 215.886L84.9715 198.818C86.822 197.347 88.045 195.363 88.4372 193.196C88.8294 191.029 88.3672 188.809 87.1275 186.905L96.5573 178.681C94.9916 176.38 93.8349 173.881 93.1273 171.272L93.13 171.26Z" fill="white"/>
<path d="M230.665 42.9514L209.034 59.8206C207.172 61.2784 205.931 63.251 205.514 65.4132C205.097 67.5753 205.53 69.7979 206.742 71.7143L197.214 79.859C198.752 82.1762 199.879 84.6859 200.557 87.3019L212.175 77.4132C214.145 79.144 216.792 80.1478 219.574 80.22C222.357 80.2921 225.065 79.427 227.148 77.8013L248.778 60.9321L230.665 42.9514Z" fill="white"/>
</g>
</svg>
