<svg width="18" height="10" viewBox="0 0 18 10" fill="none" xmlns="http://www.w3.org/2000/svg">
<path id="Vector" d="M17.6016 4.30591C17.5287 4.17654 17.4228 4.06883 17.2947 3.99378C17.1666 3.91878 17.0209 3.87909 16.8724 3.87883H13.2266L12.1849 0.930911C12.1293 0.766588 12.0234 0.62388 11.8823 0.522942C11.7411 0.422005 11.5719 0.367994 11.3984 0.368411H5.21094C5.00063 0.385025 4.80432 0.480286 4.66115 0.635234C4.51797 0.790182 4.43844 0.993359 4.43844 1.20435C4.43844 1.41529 4.51797 1.61851 4.66115 1.77346C4.80432 1.92841 5.00063 2.02367 5.21094 2.04029H5.96094L4.78906 3.67049C4.74354 3.73482 4.70677 3.80487 4.67969 3.87883H0.841143C0.731028 3.87883 0.621986 3.90049 0.520252 3.94263C0.418512 3.98482 0.326075 4.04654 0.248205 4.1244C0.17034 4.20232 0.108575 4.29471 0.0664342 4.39648C0.0242935 4.4982 0.00260604 4.60726 0.00260604 4.71737V8.49341C-0.00650854 8.60872 0.00834574 8.72471 0.0462207 8.83398C0.0841009 8.94331 0.144184 9.04357 0.2227 9.12857C0.30121 9.21351 0.396455 9.28133 0.502439 9.32768C0.608424 9.37403 0.722856 9.39799 0.838538 9.39799C0.954226 9.39799 1.06866 9.37403 1.17464 9.32768C1.28063 9.28133 1.37587 9.21351 1.45438 9.12857C1.5329 9.04357 1.59297 8.94331 1.63084 8.83398C1.66875 8.72471 1.6836 8.60872 1.67448 8.49341V5.55591H15.2161C14.5041 6.31034 13.6462 6.91216 12.6945 7.32492C11.7427 7.73768 10.717 7.95268 9.67969 7.95695H4.6224C4.50709 7.94784 4.3911 7.96268 4.28182 8.00055C4.1725 8.03846 4.07219 8.09851 3.98724 8.17706C3.90229 8.25555 3.83448 8.35081 3.78813 8.4568C3.74177 8.56279 3.71781 8.67721 3.71781 8.79289C3.71781 8.90857 3.74177 9.02299 3.78813 9.12898C3.83448 9.23497 3.90229 9.33023 3.98724 9.40872C4.07219 9.48726 4.1725 9.54732 4.28182 9.58518C4.3911 9.6231 4.50709 9.63794 4.6224 9.62883H9.65886C11.254 9.62409 12.8211 9.20966 14.2101 8.42534C15.5991 7.64107 16.7633 6.5131 17.5911 5.14966C17.6683 5.02284 17.7101 4.87763 17.7119 4.72919C17.7137 4.58075 17.6756 4.43456 17.6016 4.30591ZM8.01823 2.04029H10.8099L11.4609 3.87883H6.69531L8.01823 2.04029Z" fill="#777777"/>
</svg>
